<?xml version="1.0" encoding="UTF-8" standalone="no"?>
<!-- Created with Inkscape (http://www.inkscape.org/) -->

<svg
   width="198.09387"
   height="38.68697"
   viewBox="0 0 2.751304 0.53731903"
   version="1.1"
   id="svg1"
   inkscape:version="1.3.2 (091e20ef0f, 2023-11-25)"
   sodipodi:docname="logo2.svg"
   xml:space="preserve"
   xmlns:inkscape="http://www.inkscape.org/namespaces/inkscape"
   xmlns:sodipodi="http://sodipodi.sourceforge.net/DTD/sodipodi-0.dtd"
   xmlns="http://www.w3.org/2000/svg"
   xmlns:svg="http://www.w3.org/2000/svg"><sodipodi:namedview
     id="namedview1"
     pagecolor="#505050"
     bordercolor="#eeeeee"
     borderopacity="1"
     inkscape:showpageshadow="0"
     inkscape:pageopacity="0"
     inkscape:pagecheckerboard="0"
     inkscape:deskcolor="#505050"
     inkscape:document-units="mm"
     inkscape:zoom="2.8044402"
     inkscape:cx="78.625316"
     inkscape:cy="18.007159"
     inkscape:window-width="1392"
     inkscape:window-height="1237"
     inkscape:window-x="696"
     inkscape:window-y="72"
     inkscape:window-maximized="0"
     inkscape:current-layer="layer1"
     showguides="true"><sodipodi:guide
       position="1.0384221,0.34924897"
       orientation="0,-1"
       id="guide3"
       inkscape:locked="false" /><sodipodi:guide
       position="0.93194417,0.28734317"
       orientation="0,-1"
       id="guide4"
       inkscape:locked="false" /><sodipodi:guide
       position="0.63936675,-0.31002661"
       orientation="0,-1"
       id="guide5"
       inkscape:locked="false" /><sodipodi:guide
       position="0.80735209,-0.25306161"
       orientation="0,-1"
       id="guide6"
       inkscape:locked="false" /></sodipodi:namedview><defs
     id="defs1"><clipPath
       clipPathUnits="userSpaceOnUse"
       id="clipPath15"><path
         d="M 0,772.853 H 1755.659 V 0 H 0 Z"
         transform="translate(-550.58111,-489.58881)"
         id="path15" /></clipPath><inkscape:path-effect
       effect="fillet_chamfer"
       id="path-effect9-4"
       is_visible="true"
       lpeversion="1"
       nodesatellites_param="F,0,0,1,0,0,0,1 @ F,0,0,1,0,0,0,1 @ F,0,0,1,0,0,0,1 @ F,0,0,1,0,0,0,1 @ F,0,0,1,0,0,0,1 @ F,0,0,1,0,0,0,1 @ F,0,0,1,0,0,0,1 @ F,0,0,1,0,0,0,1 @ F,0,0,1,0,0,0,1 @ F,0,0,1,0,0,0,1 @ F,0,0,1,0,0,0,1 @ F,0,0,1,0,0,0,1 @ F,0,0,1,0,0,0,1 @ F,0,0,1,0,0,0,1 @ F,0,0,1,0,0,0,1 @ F,0,0,1,0,0,0,1 @ F,0,0,1,0,0,0,1 @ F,0,0,1,0,0,0,1 @ F,0,0,1,0,0,0,1 @ F,0,0,1,0,0,0,1 @ F,0,0,1,0,0,0,1 @ F,0,0,1,0,0,0,1 @ F,0,0,1,0,0,0,1 @ F,0,0,1,0,0,0,1 @ F,0,0,1,0,0,0,1 @ F,0,0,1,0,0,0,1 @ F,0,0,1,0,0,0,1 @ F,0,0,1,0,0,0,1 @ F,0,0,1,0,0,0,1 @ F,0,0,1,0,0,0,1 @ F,0,0,1,0,0,0,1 @ F,0,0,1,0,0,0,1 @ F,0,0,1,0,0,0,1 @ F,0,0,1,0,0,0,1 @ F,0,0,1,0,0,0,1 @ F,0,0,1,0,0,0,1 @ F,0,0,1,0,0,0,1 @ F,0,0,1,0,0,0,1 @ F,0,0,1,0,0,0,1 @ F,0,0,1,0,0,0,1 @ F,0,0,1,0,0,0,1 @ F,0,0,1,0,0,0,1 @ F,0,0,1,0,0,0,1 @ F,0,0,1,0,0,0,1 @ F,0,0,1,0,0,0,1 @ F,0,0,1,0,0,0,1 @ F,0,0,1,0,0,0,1 @ F,0,0,1,0,0,0,1 @ F,0,0,1,0,0,0,1 @ F,0,0,1,0,0,0,1 @ F,0,0,1,0,0,0,1 @ F,0,0,1,0,0,0,1 @ F,0,0,1,0,0,0,1 @ F,0,0,1,0,0,0,1 @ F,0,0,1,0,0,0,1 @ F,0,0,1,0,0,0,1 @ F,0,0,1,0,0,0,1 @ F,0,0,1,0,0,0,1 @ F,0,0,1,0,0,0,1 @ F,0,0,1,0,0,0,1 @ F,0,0,1,0,0,0,1 @ F,0,0,1,0,0,0,1 @ F,0,0,1,0,0,0,1 @ F,0,0,1,0,0,0,1 @ F,0,0,1,0,0,0,1 @ F,0,0,1,0,0,0,1 @ F,0,0,1,0,0,0,1 @ F,0,0,1,0,0,0,1 @ F,0,0,1,0,0,0,1 @ F,0,0,1,0,0,0,1 @ F,0,0,1,0,0,0,1 @ F,0,0,1,0,0,0,1 @ F,0,0,1,0,0,0,1 @ F,0,0,1,0,0,0,1 @ F,0,0,1,0,0,0,1 @ F,0,0,1,0,0,0,1 @ F,0,0,1,0,0,0,1 @ F,0,0,1,0,0,0,1 @ F,0,0,1,0,0,0,1 @ F,0,0,1,0,0,0,1 @ F,0,0,1,0,0,0,1 @ F,0,0,1,0,0,0,1 @ F,0,0,1,0,0,0,1 @ F,0,0,1,0,0,0,1 @ F,0,0,1,0,0,0,1 @ F,0,0,1,0,0,0,1 @ F,0,0,1,0,0,0,1 @ F,0,0,1,0,0,0,1 @ F,0,0,1,0,0,0,1 @ F,0,0,1,0,0,0,1 @ F,0,0,1,0,0,0,1 @ F,0,0,1,0,0,0,1 @ F,0,0,1,0,0,0,1 @ F,0,0,1,0,0,0,1 @ F,0,0,1,0,0,0,1 @ F,0,0,1,0,0,0,1 @ F,0,0,1,0,0,0,1 @ F,0,0,1,0,0,0,1 @ F,0,0,1,0,0,0,1 @ F,0,0,1,0,0,0,1 @ F,0,0,1,0,0,0,1 @ F,0,0,1,0,0,0,1 @ F,0,0,1,0,0,0,1 @ F,0,0,1,0,0,0,1 @ F,0,0,1,0,0,0,1 @ F,0,0,1,0,0,0,1 @ F,0,0,1,0,0,0,1 @ F,0,0,1,0,0,0,1 @ F,0,0,1,0,0,0,1 @ F,0,0,1,0,0,0,1 @ F,0,0,1,0,0,0,1 @ F,0,0,1,0,0,0,1 @ F,0,0,1,0,0,0,1 @ F,0,0,1,0,0,0,1 @ F,0,0,1,0,0,0,1 @ F,0,0,1,0,0,0,1 @ F,0,0,1,0,0,0,1 @ F,0,0,1,0,0,0,1 @ F,0,0,1,0,0,0,1 @ F,0,0,1,0,0,0,1 @ F,0,0,1,0,0,0,1 @ F,0,0,1,0,0,0,1 @ F,0,0,1,0,0,0,1 @ F,0,0,1,0,0,0,1 @ F,0,0,1,0,0,0,1 @ F,0,0,1,0,0,0,1 @ F,0,0,1,0,0,0,1 @ F,0,0,1,0,0,0,1 @ F,0,0,1,0,0,0,1 @ F,0,0,1,0,0,0,1 @ F,0,0,1,0,0,0,1 @ F,0,0,1,0,0,0,1 @ F,0,0,1,0,0,0,1 @ F,0,0,1,0,0,0,1 @ F,0,0,1,0,0,0,1 @ F,0,0,1,0,0,0,1 @ F,0,0,1,0,0,0,1 @ F,0,0,1,0,0,0,1 @ F,0,0,1,0,0,0,1 @ F,0,0,1,0,0,0,1 @ F,0,0,1,0,0,0,1 @ F,0,0,1,0,0,0,1 @ F,0,0,1,0,0,0,1 @ F,0,0,1,0,0,0,1 @ F,0,0,1,0,0,0,1 @ F,0,0,1,0,0,0,1 @ F,0,0,1,0,0,0,1 @ F,0,0,1,0,0,0,1 @ F,0,0,1,0,0,0,1 @ F,0,0,1,0,0,0,1 @ F,0,0,1,0,0,0,1 @ F,0,0,1,0,0,0,1 @ F,0,0,1,0,0,0,1 @ F,0,0,1,0,0,0,1 @ F,0,0,1,0,0,0,1 @ F,0,0,1,0,0,0,1 @ F,0,0,1,0,0,0,1 @ F,0,0,1,0,0,0,1 @ F,0,0,1,0,0,0,1 @ F,0,0,1,0,0,0,1 @ F,0,0,1,0,0,0,1 @ F,0,0,1,0,0,0,1 @ F,0,0,1,0,0,0,1 @ F,0,0,1,0,0,0,1 @ F,0,0,1,0,0,0,1 @ F,0,0,1,0,0,0,1 @ F,0,0,1,0,0,0,1 @ F,0,0,1,0,0,0,1 @ F,0,0,1,0,0,0,1 @ F,0,0,1,0,0,0,1 @ F,0,0,1,0,0,0,1 @ F,0,0,1,0,0,0,1 @ F,0,0,1,0,0,0,1 @ F,0,0,1,0,0,0,1 @ F,0,0,1,0,0,0,1 @ F,0,0,1,0,0,0,1 @ F,0,0,1,0,0,0,1 @ F,0,0,1,0,0,0,1 @ F,0,0,1,0,0,0,1 @ F,0,0,1,0,0,0,1 @ F,0,0,1,0,0,0,1 @ F,0,0,1,0,0,0,1 @ F,0,0,1,0,0,0,1 @ F,0,0,1,0,0,0,1 @ F,0,0,1,0,0,0,1 @ F,0,0,1,0,0,0,1 @ F,0,0,1,0,0,0,1 @ F,0,0,1,0,0,0,1 @ F,0,0,1,0,0,0,1 @ F,0,0,1,0,0,0,1 @ F,0,0,1,0,0,0,1 @ F,0,0,1,0,0,0,1 @ F,0,0,1,0,0,0,1 @ F,0,0,1,0,0,0,1 @ F,0,0,1,0,0,0,1 @ F,0,0,1,0,0,0,1 @ F,0,0,1,0,0,0,1 @ F,0,0,1,0,0,0,1 @ F,0,0,1,0,0,0,1 @ F,0,0,1,0,0,0,1 @ F,0,0,1,0,0,0,1 @ F,0,0,1,0,0,0,1 @ F,0,0,1,0,0,0,1 @ F,0,0,1,0,0,0,1 @ F,0,0,1,0,0,0,1 @ F,0,0,1,0,0,0,1 @ F,0,0,1,0,0,0,1 @ F,0,0,1,0,0,0,1 @ F,0,0,1,0,0,0,1 @ F,0,0,1,0,0,0,1 @ F,0,0,1,0,0,0,1 @ F,0,0,1,0,0,0,1 @ F,0,0,1,0,0,0,1 @ F,0,0,1,0,0,0,1 @ F,0,0,1,0,0,0,1 @ F,0,0,1,0,0,0,1 @ F,0,0,1,0,0,0,1 @ F,0,0,1,0,0,0,1 @ F,0,0,1,0,0,0,1 @ F,0,0,1,0,0,0,1 @ F,0,0,1,0,0,0,1 @ F,0,0,1,0,0,0,1 @ F,0,0,1,0,0,0,1 @ F,0,0,1,0,0,0,1 @ F,0,0,1,0,0,0,1 @ F,0,0,1,0,0,0,1 @ F,0,0,1,0,0,0,1 @ F,0,0,1,0,0,0,1 @ F,0,0,1,0,0,0,1 @ F,0,0,1,0,0,0,1 @ F,0,0,1,0,0,0,1 @ F,0,0,1,0,0,0,1 @ F,0,0,1,0,0,0,1 @ F,0,0,1,0,0,0,1 @ F,0,0,1,0,0,0,1 @ F,0,0,1,0,0,0,1 @ F,0,0,1,0,0,0,1 @ F,0,0,1,0,0,0,1 @ F,0,0,1,0,0,0,1 @ F,0,0,1,0,0,0,1 @ F,0,0,1,0,0,0,1 @ F,0,0,1,0,0,0,1 @ F,0,0,1,0,0,0,1 @ F,0,0,1,0,0,0,1 @ F,0,0,1,0,0,0,1 @ F,0,0,1,0,0,0,1 @ F,0,0,1,0,0,0,1 @ F,0,0,1,0,0,0,1 | F,0,0,1,0,0,0,1 @ F,0,0,1,0,0,0,1 @ F,0,0,1,0,0,0,1 @ F,0,0,1,0,0,0,1"
       radius="0"
       unit="px"
       method="auto"
       mode="F"
       chamfer_steps="1"
       flexible="false"
       use_knot_distance="true"
       apply_no_radius="true"
       apply_with_radius="true"
       only_selected="false"
       hide_knots="false" /></defs><g
     inkscape:label="Layer 1"
     inkscape:groupmode="layer"
     id="layer1"
     transform="translate(0.41738882,-1.1873747)"><path
       id="path14"
       d="m 0,0 c 0,-13.117 -10.677,-23.81 -23.811,-23.81 h -42.833 -22.752 c -4.695,7.32 -9.423,14.693 -14.185,22.149 l -1.814,2.813 c 0,0.001 10e-4,0.001 10e-4,0.001 7.168,24.437 29.793,42.334 56.518,42.334 H 0 Z m -56.655,-111.444 c 7.508,-11.626 11.473,-25.014 11.473,-38.724 0,-16.32 -5.728,-32.302 -16.133,-44.995 -19.761,-24.133 -52.52,-32.504 -81.516,-20.862 -28.81,11.575 -46.621,40.148 -44.334,71.127 0.915,12.117 5.05,23.743 12.643,35.521 14.303,22.117 28.268,43.961 43.639,68.026 h 29.251 c 1.474,-2.304 2.948,-4.61 4.423,-6.914 l 12.269,-19.134 c 8.745,-13.676 18.625,-29.114 28.285,-44.045 m -99.069,87.634 h -53.556 c -13.134,0 -23.811,10.676 -23.811,23.81 v 43.487 h 48.892 c 26.912,0 49.706,-18.185 56.688,-42.91 -1.288,-1.984 -2.559,-3.983 -3.83,-5.983 l -11.778,-18.404 z m 39.449,5.286 c 1.135,-1.775 2.258,-3.524 3.39,-5.286 h -6.773 z m 67.399,79.551 c -29.335,0 -54.858,-16.609 -67.652,-40.911 0,0 -10e-4,0 -10e-4,0 0,0 0,0 0,0 -12.829,24.302 -38.351,40.911 -67.67,40.911 h -66.433 V 0 c 0,-22.811 18.557,-41.351 41.352,-41.351 h 53.556 1.386 c -12.1,-18.93 -24.505,-38.3 -36.792,-57.298 -9.423,-14.609 -14.592,-29.268 -15.744,-44.774 -2.932,-39.606 19.845,-76.144 56.671,-90.939 10.965,-4.406 22.438,-6.643 34.098,-6.643 27.183,0 52.739,12.151 70.093,33.318 25.099,30.623 27.489,73.619 5.965,106.953 -8.219,12.727 -16.506,25.675 -24.624,38.335 l -13.473,21.048 h 11.5 42.833 C -1,-41.351 17.54,-22.793 17.54,0 v 61.027 z"
       style="display:none;fill:#ed6626;fill-opacity:0.980392;fill-rule:nonzero;stroke:none"
       transform="matrix(0.00217321,0,0,-0.00217321,0.22898687,1.2453142)"
       clip-path="url(#clipPath15)" /><path
       style="display:none;fill:#ec6626;fill-opacity:0.980392;stroke-width:0.00311336"
       d="m 1.1659737,1.5666598 c 3.406e-4,-0.142005 1.942e-4,-0.1373731 0.00472,-0.1599133 0.00837,-0.041614 0.028947,-0.06747 0.062618,-0.078681 0.022107,-0.00735 0.054784,-0.0089 0.079927,-0.00379 0.047564,0.00969 0.071981,0.04082 0.079579,0.1014401 0.00173,0.01387 0.00197,0.054983 3.645e-4,0.069062 -0.00418,0.037108 -0.013479,0.06205 -0.029466,0.079046 -0.01749,0.018592 -0.039177,0.026672 -0.071546,0.026656 -0.015874,-6.3e-6 -0.024763,-0.00147 -0.036417,-0.00598 -0.013143,-0.00508 -0.02599,-0.015742 -0.032442,-0.026906 l -0.00281,-0.00487 -2.103e-4,0.067753 -2.104e-4,0.067753 H 1.19287 1.1656536 Z m 0.1295009,-0.016291 c 0.017994,-0.00313 0.029946,-0.01322 0.037084,-0.03128 0.00836,-0.021144 0.01039,-0.070013 0.00419,-0.100908 -0.00526,-0.026242 -0.016687,-0.040197 -0.037553,-0.045887 -0.00759,-0.00207 -0.030249,-0.00202 -0.037893,7.73e-5 -0.025352,0.00695 -0.037065,0.026586 -0.040339,0.067553 -0.00224,0.02798 8.31e-5,0.057754 0.00583,0.075046 0.007,0.021021 0.01963,0.032409 0.039636,0.035741 0.00704,0.00117 0.021299,10e-4 0.029041,-3.423e-4 z m -0.43080983,0.050191 c -0.0186817,-0.00179 -0.0304905,-0.00628 -0.0404129,-0.015348 -0.0124696,-0.011397 -0.0209898,-0.030509 -0.0258042,-0.057886 -0.001452,-0.00825 -0.0223355,-0.1921077 -0.0223355,-0.1966338 0,-0.00138 0.001585,-0.00148 0.0266783,-0.00148 h 0.0266783 l 4.9122e-4,0.00351 c 2.6983e-4,0.00194 0.004763,0.042235 0.009976,0.089581 0.005496,0.049913 0.0103601,0.090551 0.0115719,0.09672 0.003326,0.016939 0.0077,0.025596 0.0151397,0.029969 0.003363,0.00198 0.004622,0.00223 0.0112623,0.00223 0.006888,0 0.007795,-1.963e-4 0.0115215,-0.0025 0.007892,-0.00488 0.012705,-0.014956 0.0159618,-0.03343 9.1122e-4,-0.00515 0.005741,-0.047556 0.0107415,-0.09422 0.005001,-0.046665 0.009313,-0.08642 0.009588,-0.088345 L 0.92622,1.329227 h 0.026997 0.026997 l 4.9119e-4,0.0035 c 2.6992e-4,0.00194 0.00476,0.042237 0.009976,0.089581 0.005493,0.049913 0.0103611,0.090551 0.011572,0.09672 0.00333,0.016939 0.0077,0.025596 0.01514,0.029969 0.00335,0.00197 0.00463,0.00223 0.011198,0.00223 0.00664,0 0.00782,-2.406e-4 0.011356,-0.00233 0.00743,-0.00437 0.012127,-0.013356 0.01548,-0.029613 9.586e-4,-0.00464 0.00624,-0.049207 0.011771,-0.099044 l 0.010034,-0.090618 0.027032,-2.172e-4 0.027032,-2.169e-4 -4.85e-4,0.00309 c -2.677e-4,0.0017 -0.00493,0.043319 -0.010349,0.092476 -0.00542,0.049157 -0.010607,0.093732 -0.01152,0.099058 -0.00755,0.044164 -0.022434,0.06638 -0.049461,0.073882 -0.013136,0.00365 -0.034221,0.00387 -0.047365,4.698e-4 -0.0146019,-0.00376 -0.0272483,-0.014097 -0.0344413,-0.02815 -0.008456,-0.016521 -0.0128321,-0.036275 -0.0157576,-0.071124 -0.005381,-0.064107 -0.007445,-0.084845 -0.008456,-0.084845 -5.8594e-4,0 -0.001072,1.855e-4 -0.001072,4.121e-4 0,0.00374 -0.00935,0.1037256 -0.010269,0.109822 -0.007221,0.047902 -0.0225463,0.069693 -0.0527462,0.075007 -0.005689,10e-4 -0.0198683,0.00173 -0.0247124,0.00126 z M 1.5303222,1.600203 C 1.4698072,1.594823 1.4380572,1.562207 1.4292874,1.4964355 c -0.0024,-0.018021 -0.00219,-0.056663 4.128e-4,-0.075372 0.00478,-0.034262 0.014874,-0.0572 0.03255,-0.073943 0.013957,-0.013222 0.030018,-0.020379 0.05425,-0.024174 0.010616,-0.00165 0.038244,-0.0019 0.048747,-4.085e-4 0.029808,0.00421 0.050981,0.015017 0.065947,0.03364 0.018304,0.022779 0.026965,0.058851 0.025065,0.1044117 l -6.06e-4,0.014429 h -0.087063 -0.087062 l 2.674e-4,0.00514 c 0.0017,0.033019 0.00786,0.052735 0.020401,0.065301 0.0066,0.00662 0.012724,0.01016 0.022302,0.012875 0.00864,0.00246 0.028245,0.00271 0.036628,4.742e-4 0.017758,-0.00473 0.029922,-0.017015 0.035281,-0.035608 8.984e-4,-0.00315 0.00187,-0.00679 0.00217,-0.00802 l 4.85e-4,-0.00225 h 0.027183 0.027183 l -5.345e-4,0.00225 c -0.00163,0.00691 -0.00799,0.024631 -0.011004,0.030685 -0.014887,0.029807 -0.038104,0.047178 -0.070455,0.052709 -0.010939,0.00186 -0.029963,0.00264 -0.041111,0.00163 z m 0.071179,-0.1650935 c 0,-0.00634 -0.00243,-0.022787 -0.00458,-0.030933 -0.00801,-0.030434 -0.026984,-0.044149 -0.058845,-0.042552 -0.017066,8.592e-4 -0.027137,0.00467 -0.036282,0.01372 -0.011193,0.011082 -0.017061,0.028297 -0.019307,0.056632 l -5.346e-4,0.00681 h 0.059779 0.059777 z M 0.44085048,1.591922 C 0.38732508,1.588552 0.36403138,1.569373 0.35805028,1.523782 0.35705788,1.516212 0.35683128,1.501837 0.35683128,1.446556 V 1.378639 l -4.1584e-4,-0.04911 2.1657e-4,-0.028988 2.1648e-4,-0.028988 h 0.0271735 0.0271731 v 0.02883 0.028831 h 0.0313017 0.0313017 v 0.024712 0.024712 h -0.0313354 -0.0313349 l 2.7724e-4,0.065282 c 2.408e-4,0.056811 4.4597e-4,0.065833 0.001585,0.069534 0.006511,0.02113 0.0186543,0.028671 0.0478332,0.029708 l 0.0129739,4.598e-4 v 0.024597 0.024596 l -0.0113268,-1.209e-4 c -0.00623,-6.65e-5 -0.0159596,-4.136e-4 -0.0216231,-7.711e-4 z m 0.0669684,-0.096515 c 2.748e-4,-0.083579 5.0025e-4,-0.098351 0.001593,-0.1040597 0.002125,-0.011087 0.004592,-0.01903 0.007994,-0.025708 0.0138043,-0.027129 0.0404595,-0.036386 0.1048715,-0.036415 l 0.0162686,-6.1e-6 v 0.024611 0.024611 l -0.0199757,4.147e-4 c -0.01665,3.455e-4 -0.0210252,6.962e-4 -0.0262805,0.00211 -0.0158285,0.00425 -0.023828,0.01193 -0.0280536,0.02694 l -0.001851,0.00658 -2.5532e-4,0.089171 -2.5532e-4,0.089171 H 0.53468724 0.50749744 Z M 0.67973508,1.461015 V 1.3292166 h 0.0271841 0.0271833 V 1.4610151 1.5928135 H 0.7069191 0.67973505 Z M 0.68060134,1.2600223 V 1.233663 h 0.0263206 0.0261975 v 0.02636 0.02636 h -0.0261975 -0.0263206 z"
       id="path16"
       sodipodi:nodetypes="ccssscscsscccccccssscscsccccssscccsssccscccccscssccsccccccscscsscscccsssscscccccsscccccccssccssssccccscsscccccccccccccccccccccccccscccccsscccccccccccccccccccccccc" /><path
       style="display:inline;mix-blend-mode:normal;fill:#006ae0;fill-opacity:1;stroke-width:0.399832"
       d="m 84.939488,36.402332 c -0.131799,0.0351 -0.389406,0.21366 -0.572469,0.39672 -0.183044,0.18304 -0.407884,0.33282 -0.499638,0.33282 -0.09171,0 -0.166818,0.0476 -0.166818,0.10579 0,0.0582 -0.05992,0.10579 -0.133235,0.10579 -0.07328,0 -0.1927,0.0952 -0.265374,0.21157 -0.0727,0.11637 -0.181324,0.21157 -0.241446,0.21157 -0.0601,0 -0.211509,0.0953 -0.336423,0.21159 -0.124896,0.11637 -0.301423,0.21201 -0.392273,0.21255 -0.09084,3.9e-4 -0.403213,0.11805 -0.694136,0.26116 -0.290911,0.14311 -0.603142,0.26169 -0.693846,0.2635 -0.09066,0.002 -0.257318,0.0732 -0.370265,0.15863 -0.112942,0.0854 -0.296807,0.15683 -0.408602,0.15868 -0.111783,0.002 -0.282934,0.0755 -0.380336,0.16365 -0.09742,0.0882 -0.577218,0.21707 -1.066224,0.28649 -0.489011,0.0694 -0.921082,0.17258 -0.960149,0.22925 -0.04158,0.0602 -0.901946,0.106 -2.072832,0.1102 -1.464337,0.005 -2.045007,-0.0286 -2.162794,-0.12624 -0.08854,-0.0734 -0.560134,-0.1832 -1.047939,-0.24403 -0.487811,-0.0608 -0.992367,-0.17931 -1.121234,-0.26328 -0.128867,-0.0839 -0.306238,-0.15267 -0.394167,-0.15267 -0.08786,0 -0.315707,-0.0951 -0.506216,-0.21119 -0.190503,-0.11614 -0.417774,-0.21241 -0.505045,-0.21392 -0.08729,-0.002 -0.27769,-0.0958 -0.423157,-0.20962 -0.145456,-0.11378 -0.339326,-0.20793 -0.430821,-0.20923 -0.09151,-0.001 -0.448514,-0.15405 -0.793398,-0.33948 -0.344896,-0.18542 -0.786554,-0.49484 -0.981469,-0.68762 -0.194926,-0.19278 -0.397245,-0.3505 -0.449612,-0.3505 -0.05238,0 -0.09517,-0.068 -0.09517,-0.15108 0,-0.10327 -0.175719,-0.17211 -0.555385,-0.21756 -0.305472,-0.0366 -6.567254,-0.0518 -13.915088,-0.0341 -10.211955,0.0248 -13.378095,0.0622 -13.437765,0.15878 -0.0429,0.0695 -0.28677,0.17323 -0.54187,0.23055 -0.25509,0.0573 -0.59646,0.20229 -0.75859,0.32216 -0.16213,0.11986 -0.36879,0.18953 -0.45924,0.15483 -0.0905,-0.0346 -0.16445,-0.0118 -0.16445,0.0509 0,0.0627 -0.26184,0.23787 -0.58185,0.38926 -0.32001,0.1514 -0.58183,0.3194 -0.58183,0.37336 0,0.054 -0.0564,0.0981 -0.12528,0.0981 -0.069,0 -0.51066,0.39327 -0.9817,0.87393 -0.47103,0.48068 -0.92074,1.02926 -0.99938,1.21908 -0.0786,0.18983 -0.19622,0.37972 -0.26132,0.42197 -0.0651,0.0422 -0.19438,0.24346 -0.28728,0.4471 -0.093,0.20364 -0.25257,0.60829 -0.3548,0.8992 -0.10222,0.29092 -0.28159,0.95739 -0.3986,1.48104 -0.18668,0.83545 -0.19925,1.07523 -0.10261,1.9571 0.0606,0.55274 0.17856,1.29278 0.2622,1.644523 0.0836,0.351739 0.21806,0.756382 0.29872,0.899207 0.0807,0.142818 0.17545,0.28347 0.21065,0.312563 0.0352,0.02909 0.12222,0.23141 0.19334,0.4496 0.0712,0.218189 0.16571,0.396702 0.21017,0.396702 0.0445,0 0.13788,0.190424 0.20761,0.423163 0.0697,0.232732 0.17248,0.423151 0.22833,0.423151 0.0559,0 0.10153,0.05606 0.10153,0.124534 0,0.06847 0.15472,0.260413 0.34382,0.426488 0.1891,0.166094 0.52233,0.425806 0.74052,0.577164 0.21819,0.151357 0.3967,0.340261 0.3967,0.419808 0,0.07951 0.0692,0.144622 0.15388,0.144622 0.0846,0 0.27505,0.121179 0.42316,0.26929 0.1481,0.148098 0.26927,0.338517 0.26927,0.423151 0,0.0846 0.0751,0.153874 0.16682,0.153874 0.0918,0 0.29788,0.130912 0.45805,0.290923 0.16016,0.159998 0.5592,0.497526 0.88675,0.750052 0.32754,0.252519 0.70457,0.597222 0.83787,0.766007 0.13328,0.168779 0.2817,0.307301 0.32982,0.307826 0.0481,4.04e-4 0.23494,0.14843 0.41518,0.328662 0.18023,0.180239 0.50981,0.442655 0.73238,0.583174 0.22257,0.140496 0.40468,0.316003 0.40468,0.390004 0,0.07404 0.14282,0.218907 0.31738,0.322019 0.17454,0.103111 0.31736,0.232527 0.31736,0.287604 0,0.05503 0.19042,0.182616 0.42315,0.28344 0.23274,0.100825 0.42315,0.239486 0.42315,0.308128 0,0.06867 0.19723,0.307337 0.43827,0.530432 0.24105,0.223102 0.56753,0.536546 0.72553,0.696556 0.158,0.159999 0.31291,0.290912 0.34427,0.290912 0.0313,0 0.21373,0.130912 0.40528,0.290923 0.19154,0.16001 0.48573,0.421835 0.65375,0.581834 0.16801,0.160011 0.33752,0.29175 0.37668,0.292758 0.0392,0.0012 0.45154,0.381839 0.91638,0.846302 0.46485,0.464463 0.8846,0.844486 0.93276,0.844486 0.0482,0 0.24192,0.154718 0.43057,0.343803 0.18865,0.189103 0.53614,0.522334 0.7722,0.740523 0.23606,0.218196 0.48148,0.396714 0.54539,0.396714 0.0639,0 0.17189,0.104108 0.23999,0.231351 0.0681,0.127256 0.20069,0.310053 0.29464,0.40623 0.0939,0.09617 0.25865,0.206519 0.366,0.245218 0.10735,0.03868 0.2173,0.154972 0.24434,0.258379 0.0271,0.103407 0.18869,0.249774 0.35921,0.325254 0.17053,0.07548 0.38637,0.264359 0.47966,0.419741 0.0932,0.155365 0.35556,0.412953 0.58284,0.572403 0.227281,0.159455 0.413228,0.36178 0.413228,0.449606 0,0.08787 0.06559,0.159685 0.145733,0.159685 0.08019,0 0.209108,0.07635 0.286573,0.169702 0.07749,0.09334 0.249906,0.211177 0.383208,0.261855 0.133315,0.05069 0.242376,0.164742 0.242376,0.253455 0,0.08874 0.08393,0.161302 0.18649,0.161302 0.102568,0 0.233481,0.10322 0.290917,0.229365 0.05745,0.126158 0.19763,0.280882 0.311543,0.343816 0.113907,0.0629 0.268626,0.170559 0.34381,0.239123 0.07519,0.06856 0.138208,0.163782 0.140042,0.211581 0.0018,0.04785 0.118572,0.217816 0.259405,0.377814 0.140821,0.160011 0.35635,0.290924 0.478946,0.290924 0.134588,0 0.194522,0.04592 0.151279,0.115868 -0.03934,0.06377 -0.0067,0.242255 0.07308,0.396714 0.07961,0.154447 0.275626,0.398542 0.43563,0.542411 0.160005,0.143874 0.290918,0.317511 0.290918,0.385852 0,0.06838 0.142715,0.411908 0.317149,0.763478 0.174421,0.351564 0.364845,0.668695 0.423151,0.704727 0.05829,0.03603 0.106008,0.182369 0.106008,0.325175 0,0.142825 0.04254,0.342331 0.09459,0.443367 0.05196,0.101035 0.21356,0.564527 0.35901,1.030002 0.145462,0.465468 0.33964,1.131948 0.431515,1.481044 0.09191,0.349108 0.262603,1.015564 0.379377,1.481041 0.116785,0.465471 0.332501,1.274764 0.479362,1.798407 0.146862,0.52365 0.336297,1.237736 0.420961,1.586832 0.0847,0.349102 0.251017,0.99177 0.369697,1.428142 0.118669,0.436385 0.266327,0.983841 0.328114,1.216579 0.06175,0.232727 0.178,0.661176 0.258234,0.952087 0.08028,0.290923 0.213374,0.766985 0.295878,1.057896 0.0825,0.290923 0.210091,0.814579 0.283549,1.163681 0.07346,0.349101 0.199241,0.784738 0.27953,0.968078 0.08028,0.183352 0.145986,0.471789 0.145986,0.640966 0,0.169177 0.06991,0.400015 0.15531,0.512951 0.08547,0.112947 0.156831,0.361599 0.158683,0.552561 0.0018,0.190973 0.06578,0.500404 0.142022,0.687631 0.07625,0.187232 0.202947,0.626043 0.281516,0.975144 0.07855,0.349108 0.182773,0.679962 0.231592,0.735238 0.04882,0.05528 0.08873,0.255838 0.08873,0.445677 0,0.189858 0.09518,0.586735 0.211569,0.881973 0.116376,0.295225 0.211588,0.648575 0.211588,0.785233 0,0.136651 0.07106,0.38482 0.158025,0.55148 0.08691,0.166655 0.158322,0.396871 0.15869,0.511605 3.56e-4,0.114722 0.09257,0.519365 0.204871,0.899195 0.112332,0.379835 0.308676,1.095255 0.436318,1.589818 0.127642,0.494564 0.269163,0.994413 0.314488,1.110782 0.04532,0.116364 0.156879,0.521007 0.247909,0.899207 0.09104,0.378188 0.359379,1.401699 0.596348,2.27446 0.236962,0.87276 0.471746,1.75344 0.521736,1.95708 0.05003,0.20366 0.181572,0.61599 0.292372,0.91631 0.110811,0.30033 0.25343,0.60975 0.316932,0.68763 0.06348,0.0779 0.192566,0.3082 0.286813,0.51184 0.09421,0.20364 0.276978,0.56068 0.406068,0.79342 0.129084,0.23274 0.366372,0.55447 0.527318,0.715 0.160922,0.1605 0.292595,0.32003 0.292595,0.35451 0,0.0345 0.226125,0.30208 0.502499,0.59467 0.276374,0.2926 0.843158,0.80541 1.259532,1.13956 0.416356,0.33417 1.231364,0.84764 1.811104,1.14106 0.57974,0.29343 1.286379,0.61465 1.570321,0.71385 0.283935,0.0992 0.944688,0.26822 1.46835,0.37561 0.622754,0.12772 1.409514,0.19583 2.274451,0.19693 0.760594,0.001 1.636942,-0.0641 2.062881,-0.15329 0.40728,-0.0853 1.145166,-0.28461 1.639718,-0.44306 0.494563,-0.15846 0.915071,-0.32592 0.934472,-0.37215 0.01943,-0.0462 0.119447,-0.084 0.222335,-0.084 0.1029,0 0.515473,-0.21241 0.916839,-0.47202 0.401367,-0.25961 0.787255,-0.52144 0.857533,-0.58183 0.0703,-0.0604 0.152763,-0.10982 0.183304,-0.10982 0.03053,0 0.20303,-0.13091 0.383311,-0.29093 0.180287,-0.16001 0.522913,-0.47595 0.761391,-0.7021 0.238477,-0.22615 0.68652,-0.726 0.995632,-1.11079 0.309111,-0.38477 0.609973,-0.75709 0.66858,-0.82736 0.05859,-0.0703 0.106569,-0.20119 0.106569,-0.29091 0,-0.0897 0.03916,-0.16316 0.0871,-0.16316 0.04785,0 0.23829,-0.32237 0.423145,-0.71636 0.184861,-0.39399 0.336097,-0.77483 0.336097,-0.84631 0,-0.0714 0.04236,-0.12995 0.09402,-0.12995 0.05165,0 0.125161,-0.17851 0.163239,-0.3967 0.03802,-0.21819 0.135191,-0.61093 0.215806,-0.87276 0.08058,-0.26182 0.273737,-0.97589 0.429125,-1.58683 0.155412,-0.610936 0.321458,-1.187098 0.368998,-1.280367 0.04749,-0.09324 0.120219,-0.402694 0.161501,-0.687631 0.04134,-0.284919 0.10987,-0.56565 0.152437,-0.623829 0.04254,-0.05823 0.234652,-0.748452 0.426863,-1.533939 0.192216,-0.78548 0.389412,-1.444019 0.438219,-1.463402 0.04882,-0.01943 0.08873,-0.235454 0.08873,-0.480129 0,-0.24468 0.09527,-0.631619 0.211582,-0.859867 0.116369,-0.228249 0.211581,-0.595358 0.211581,-0.81578 0,-0.220434 0.03729,-0.400793 0.08268,-0.400793 0.04556,0 0.137683,-0.202325 0.204889,-0.449589 0.06722,-0.247293 0.151176,-0.628124 0.186575,-0.846314 0.03536,-0.218189 0.109822,-0.396714 0.165363,-0.396714 0.05552,0 0.101006,-0.115373 0.101006,-0.256393 0,-0.141027 0.05703,-0.509958 0.126863,-0.819866 0.06982,-0.309907 0.157247,-0.587259 0.194377,-0.616363 0.03717,-0.02909 0.121034,-0.290911 0.186472,-0.581834 0.06549,-0.290918 0.189423,-0.814567 0.275517,-1.163675 0.08614,-0.349102 0.266109,-1.039364 0.400027,-1.533927 0.13393,-0.49457 0.279512,-0.915077 0.32354,-0.934466 0.04393,-0.01943 0.07999,-0.194824 0.07999,-0.389829 0,-0.195005 0.05292,-0.488565 0.117528,-0.652365 0.06463,-0.163795 0.178977,-0.535828 0.254094,-0.826751 0.0751,-0.290923 0.264535,-1.004997 0.420931,-1.586831 0.156402,-0.581835 0.353241,-1.319709 0.437422,-1.639724 0.08422,-0.32001 0.219801,-0.843672 0.301351,-1.163669 0.08153,-0.320027 0.250903,-0.938883 0.376318,-1.375262 0.125415,-0.436373 0.291574,-1.055241 0.369226,-1.37525 0.0777,-0.320016 0.259924,-1.011859 0.40503,-1.537461 0.145105,-0.525583 0.321808,-1.096846 0.392659,-1.269463 0.07087,-0.172623 0.193556,-0.46386 0.272656,-0.647194 0.07913,-0.183346 0.143821,-0.384373 0.143821,-0.446722 0,-0.06232 0.12364,-0.374495 0.274768,-0.693671 0.151122,-0.319177 0.341541,-0.635741 0.423151,-0.703472 0.08163,-0.06771 0.148389,-0.177463 0.148389,-0.243848 0,-0.06636 0.175634,-0.381887 0.390311,-0.701118 0.214671,-0.319231 0.854214,-1.032672 1.421203,-1.58542 0.566983,-0.552742 1.225232,-1.18351 1.462762,-1.401705 0.237536,-0.218189 0.478687,-0.396708 0.535894,-0.396708 0.05721,0 0.10401,-0.07145 0.10401,-0.158683 0,-0.0873 0.0516,-0.158677 0.114614,-0.158677 0.06299,0 0.266924,-0.154719 0.453104,-0.343816 0.18618,-0.189097 0.69355,-0.653246 1.12752,-1.03144 0.43395,-0.378188 0.97541,-0.854244 1.20325,-1.057884 0.22785,-0.203646 0.59336,-0.536877 0.81225,-0.740518 0.2189,-0.203646 0.69444,-0.632089 1.05676,-0.952099 0.36234,-0.320009 0.78271,-0.701504 0.93418,-0.847774 0.15146,-0.146258 0.56083,-0.503289 0.90971,-0.79341 0.34887,-0.29012 0.7611,-0.646506 0.91607,-0.791955 0.15496,-0.145462 0.62899,-0.573917 1.05341,-0.952105 0.42441,-0.378194 0.90766,-0.806638 1.07387,-0.952099 0.16621,-0.145462 0.48303,-0.431093 0.70403,-0.634727 0.221,-0.20364 0.4981,-0.441677 0.61576,-0.528954 0.11766,-0.08729 0.59452,-0.515714 1.05969,-0.952087 0.46517,-0.436385 1.08969,-0.982899 1.38783,-1.214491 0.29813,-0.231586 0.54206,-0.455997 0.54206,-0.498679 0,-0.04272 0.15977,-0.186442 0.35505,-0.319454 0.19528,-0.133006 0.61107,-0.456051 0.92399,-0.717888 0.31291,-0.261825 0.7839,-0.669582 1.04665,-0.906122 0.26274,-0.236541 0.57724,-0.522171 0.69888,-0.634727 0.12166,-0.112561 0.41073,-0.466491 0.64238,-0.7865 0.23165,-0.320016 0.54344,-0.819865 0.69288,-1.110776 0.14942,-0.290923 0.37211,-0.775795 0.49485,-1.077502 0.12274,-0.301707 0.22318,-0.714286 0.22318,-0.91684 0,-0.20255 0.0586,-0.38781 0.13019,-0.41168 0.0946,-0.0315 0.13077,-0.44579 0.13224,-1.51631 0.002,-1.11965 -0.045,-1.63781 -0.19369,-2.16053 -0.10765,-0.37819 -0.26989,-0.90184 -0.36056,-1.16366 -0.0907,-0.26184 -0.19628,-0.49985 -0.23473,-0.52896 -0.0384,-0.0291 -0.17296,-0.26711 -0.29893,-0.52893 -0.12598,-0.26183 -0.37358,-0.64267 -0.55022,-0.84631 -0.17663,-0.20366 -0.42732,-0.52727 -0.55707,-0.71917 -0.12974,-0.1919 -0.68815,-0.67191 -1.24089,-1.06671 -0.55275,-0.39478 -1.19542,-0.80232 -1.42815,-0.90564 -0.23275,-0.10332 -0.56139,-0.25407 -0.73033,-0.33499 -0.16895,-0.081 -0.46648,-0.14716 -0.66118,-0.14716 -0.19471,0 -0.35401,-0.0377 -0.35401,-0.0839 0,-0.0462 -0.28321,-0.14679 -0.62938,-0.22359 -0.50782,-0.11265 -3.14332,-0.13219 -13.647974,-0.10116 -7.160246,0.0211 -13.126457,0.0672 -13.258245,0.10235 z M 39.692462,54.322537 c 0,0.02909 -0.0238,0.05292 -0.0529,0.05292 -0.0291,0 -0.0529,-0.02384 -0.0529,-0.05292 0,-0.02909 0.0238,-0.05292 0.0529,-0.05292 0.0291,0 0.0529,0.02384 0.0529,0.05292 z"
       id="path1-65"
       sodipodi:nodetypes="ssssscsccssccsscccccsccscssssscccccsssscccccscscccsssscssssssssscscsssssssssccsscsscsccscssscsssscsccsccssssscscsscsccssssccscsssscscsssscsccsssscsssccscssssssscsssssccccccscscssscssscccscscssccscsscsscsssssssssssssssssssssssssssssscccssssssscssscsssssss"
       inkscape:path-effect="#path-effect9-4"
       inkscape:original-d="m 84.939488,36.402332 c -0.131799,0.0351 -0.389406,0.21366 -0.572469,0.39672 -0.183044,0.18304 -0.407884,0.33282 -0.499638,0.33282 -0.09171,0 -0.166818,0.0476 -0.166818,0.10579 0,0.0582 -0.05992,0.10579 -0.133235,0.10579 -0.07328,0 -0.1927,0.0952 -0.265374,0.21157 -0.0727,0.11637 -0.181324,0.21157 -0.241446,0.21157 -0.0601,0 -0.211509,0.0953 -0.336423,0.21159 -0.124896,0.11637 -0.301423,0.21201 -0.392273,0.21255 -0.09084,3.9e-4 -0.403213,0.11805 -0.694136,0.26116 -0.290911,0.14311 -0.603142,0.26169 -0.693846,0.2635 -0.09066,0.002 -0.257318,0.0732 -0.370265,0.15863 -0.112942,0.0854 -0.296807,0.15683 -0.408602,0.15868 -0.111783,0.002 -0.282934,0.0755 -0.380336,0.16365 -0.09742,0.0882 -0.577218,0.21707 -1.066224,0.28649 -0.489011,0.0694 -0.921082,0.17258 -0.960149,0.22925 -0.04158,0.0602 -0.901946,0.106 -2.072832,0.1102 -1.464337,0.005 -2.045007,-0.0286 -2.162794,-0.12624 -0.08854,-0.0734 -0.560134,-0.1832 -1.047939,-0.24403 -0.487811,-0.0608 -0.992367,-0.17931 -1.121234,-0.26328 -0.128867,-0.0839 -0.306238,-0.15267 -0.394167,-0.15267 -0.08786,0 -0.315707,-0.0951 -0.506216,-0.21119 -0.190503,-0.11614 -0.417774,-0.21241 -0.505045,-0.21392 -0.08729,-0.002 -0.27769,-0.0958 -0.423157,-0.20962 -0.145456,-0.11378 -0.339326,-0.20793 -0.430821,-0.20923 -0.09151,-0.001 -0.448514,-0.15405 -0.793398,-0.33948 -0.344896,-0.18542 -0.786554,-0.49484 -0.981469,-0.68762 -0.194926,-0.19278 -0.397245,-0.3505 -0.449612,-0.3505 -0.05238,0 -0.09517,-0.068 -0.09517,-0.15108 0,-0.10327 -0.175719,-0.17211 -0.555385,-0.21756 -0.305472,-0.0366 -6.567254,-0.0518 -13.915088,-0.0341 -10.211955,0.0248 -13.378095,0.0622 -13.437765,0.15878 -0.0429,0.0695 -0.28677,0.17323 -0.54187,0.23055 -0.25509,0.0573 -0.59646,0.20229 -0.75859,0.32216 -0.16213,0.11986 -0.36879,0.18953 -0.45924,0.15483 -0.0905,-0.0346 -0.16445,-0.0118 -0.16445,0.0509 0,0.0627 -0.26184,0.23787 -0.58185,0.38926 -0.32001,0.1514 -0.58183,0.3194 -0.58183,0.37336 0,0.054 -0.0564,0.0981 -0.12528,0.0981 -0.069,0 -0.51066,0.39327 -0.9817,0.87393 -0.47103,0.48068 -0.92074,1.02926 -0.99938,1.21908 -0.0786,0.18983 -0.19622,0.37972 -0.26132,0.42197 -0.0651,0.0422 -0.19438,0.24346 -0.28728,0.4471 -0.093,0.20364 -0.25257,0.60829 -0.3548,0.8992 -0.10222,0.29092 -0.28159,0.95739 -0.3986,1.48104 -0.18668,0.83545 -0.19925,1.07523 -0.10261,1.9571 0.0606,0.55274 0.17856,1.29278 0.2622,1.644523 0.0836,0.351739 0.21806,0.756382 0.29872,0.899207 0.0807,0.142818 0.17545,0.28347 0.21065,0.312563 0.0352,0.02909 0.12222,0.23141 0.19334,0.4496 0.0712,0.218189 0.16571,0.396702 0.21017,0.396702 0.0445,0 0.13788,0.190424 0.20761,0.423163 0.0697,0.232732 0.17248,0.423151 0.22833,0.423151 0.0559,0 0.10153,0.05606 0.10153,0.124534 0,0.06847 0.15472,0.260413 0.34382,0.426488 0.1891,0.166094 0.52233,0.425806 0.74052,0.577164 0.21819,0.151357 0.3967,0.340261 0.3967,0.419808 0,0.07951 0.0692,0.144622 0.15388,0.144622 0.0846,0 0.27505,0.121179 0.42316,0.26929 0.1481,0.148098 0.26927,0.338517 0.26927,0.423151 0,0.0846 0.0751,0.153874 0.16682,0.153874 0.0918,0 0.29788,0.130912 0.45805,0.290923 0.16016,0.159998 0.5592,0.497526 0.88675,0.750052 0.32754,0.252519 0.70457,0.597222 0.83787,0.766007 0.13328,0.168779 0.2817,0.307301 0.32982,0.307826 0.0481,4.04e-4 0.23494,0.14843 0.41518,0.328662 0.18023,0.180239 0.50981,0.442655 0.73238,0.583174 0.22257,0.140496 0.40468,0.316003 0.40468,0.390004 0,0.07404 0.14282,0.218907 0.31738,0.322019 0.17454,0.103111 0.31736,0.232527 0.31736,0.287604 0,0.05503 0.19042,0.182616 0.42315,0.28344 0.23274,0.100825 0.42315,0.239486 0.42315,0.308128 0,0.06867 0.19723,0.307337 0.43827,0.530432 0.24105,0.223102 0.56753,0.536546 0.72553,0.696556 0.158,0.159999 0.31291,0.290912 0.34427,0.290912 0.0313,0 0.21373,0.130912 0.40528,0.290923 0.19154,0.16001 0.48573,0.421835 0.65375,0.581834 0.16801,0.160011 0.33752,0.29175 0.37668,0.292758 0.0392,0.0012 0.45154,0.381839 0.91638,0.846302 0.46485,0.464463 0.8846,0.844486 0.93276,0.844486 0.0482,0 0.24192,0.154718 0.43057,0.343803 0.18865,0.189103 0.53614,0.522334 0.7722,0.740523 0.23606,0.218196 0.48148,0.396714 0.54539,0.396714 0.0639,0 0.17189,0.104108 0.23999,0.231351 0.0681,0.127256 0.20069,0.310053 0.29464,0.40623 0.0939,0.09617 0.25865,0.206519 0.366,0.245218 0.10735,0.03868 0.2173,0.154972 0.24434,0.258379 0.0271,0.103407 0.18869,0.249774 0.35921,0.325254 0.17053,0.07548 0.38637,0.264359 0.47966,0.419741 0.0932,0.155365 0.35556,0.412953 0.58284,0.572403 0.227281,0.159455 0.413228,0.36178 0.413228,0.449606 0,0.08787 0.06559,0.159685 0.145733,0.159685 0.08019,0 0.209108,0.07635 0.286573,0.169702 0.07749,0.09334 0.249906,0.211177 0.383208,0.261855 0.133315,0.05069 0.242376,0.164742 0.242376,0.253455 0,0.08874 0.08393,0.161302 0.18649,0.161302 0.102568,0 0.233481,0.10322 0.290917,0.229365 0.05745,0.126158 0.19763,0.280882 0.311543,0.343816 0.113907,0.0629 0.268626,0.170559 0.34381,0.239123 0.07519,0.06856 0.138208,0.163782 0.140042,0.211581 0.0018,0.04785 0.118572,0.217816 0.259405,0.377814 0.140821,0.160011 0.35635,0.290924 0.478946,0.290924 0.134588,0 0.194522,0.04592 0.151279,0.115868 -0.03934,0.06377 -0.0067,0.242255 0.07308,0.396714 0.07961,0.154447 0.275626,0.398542 0.43563,0.542411 0.160005,0.143874 0.290918,0.317511 0.290918,0.385852 0,0.06838 0.142715,0.411908 0.317149,0.763478 0.174421,0.351564 0.364845,0.668695 0.423151,0.704727 0.05829,0.03603 0.106008,0.182369 0.106008,0.325175 0,0.142825 0.04254,0.342331 0.09459,0.443367 0.05196,0.101035 0.21356,0.564527 0.35901,1.030002 0.145462,0.465468 0.33964,1.131948 0.431515,1.481044 0.09191,0.349108 0.262603,1.015564 0.379377,1.481041 0.116785,0.465471 0.332501,1.274764 0.479362,1.798407 0.146862,0.52365 0.336297,1.237736 0.420961,1.586832 0.0847,0.349102 0.251017,0.99177 0.369697,1.428142 0.118669,0.436385 0.266327,0.983841 0.328114,1.216579 0.06175,0.232727 0.178,0.661176 0.258234,0.952087 0.08028,0.290923 0.213374,0.766985 0.295878,1.057896 0.0825,0.290923 0.210091,0.814579 0.283549,1.163681 0.07346,0.349101 0.199241,0.784738 0.27953,0.968078 0.08028,0.183352 0.145986,0.471789 0.145986,0.640966 0,0.169177 0.06991,0.400015 0.15531,0.512951 0.08547,0.112947 0.156831,0.361599 0.158683,0.552561 0.0018,0.190973 0.06578,0.500404 0.142022,0.687631 0.07625,0.187232 0.202947,0.626043 0.281516,0.975144 0.07855,0.349108 0.182773,0.679962 0.231592,0.735238 0.04882,0.05528 0.08873,0.255838 0.08873,0.445677 0,0.189858 0.09518,0.586735 0.211569,0.881973 0.116376,0.295225 0.211588,0.648575 0.211588,0.785233 0,0.136651 0.07106,0.38482 0.158025,0.55148 0.08691,0.166655 0.158322,0.396871 0.15869,0.511605 3.56e-4,0.114722 0.09257,0.519365 0.204871,0.899195 0.112332,0.379835 0.308676,1.095255 0.436318,1.589818 0.127642,0.494564 0.269163,0.994413 0.314488,1.110782 0.04532,0.116364 0.156879,0.521007 0.247909,0.899207 0.09104,0.378188 0.359379,1.401699 0.596348,2.27446 0.236962,0.87276 0.471746,1.75344 0.521736,1.95708 0.05003,0.20366 0.181572,0.61599 0.292372,0.91631 0.110811,0.30033 0.25343,0.60975 0.316932,0.68763 0.06348,0.0779 0.192566,0.3082 0.286813,0.51184 0.09421,0.20364 0.276978,0.56068 0.406068,0.79342 0.129084,0.23274 0.366372,0.55447 0.527318,0.715 0.160922,0.1605 0.292595,0.32003 0.292595,0.35451 0,0.0345 0.226125,0.30208 0.502499,0.59467 0.276374,0.2926 0.843158,0.80541 1.259532,1.13956 0.416356,0.33417 1.231364,0.84764 1.811104,1.14106 0.57974,0.29343 1.286379,0.61465 1.570321,0.71385 0.283935,0.0992 0.944688,0.26822 1.46835,0.37561 0.622754,0.12772 1.409514,0.19583 2.274451,0.19693 0.760594,0.001 1.636942,-0.0641 2.062881,-0.15329 0.40728,-0.0853 1.145166,-0.28461 1.639718,-0.44306 0.494563,-0.15846 0.915071,-0.32592 0.934472,-0.37215 0.01943,-0.0462 0.119447,-0.084 0.222335,-0.084 0.1029,0 0.515473,-0.21241 0.916839,-0.47202 0.401367,-0.25961 0.787255,-0.52144 0.857533,-0.58183 0.0703,-0.0604 0.152763,-0.10982 0.183304,-0.10982 0.03053,0 0.20303,-0.13091 0.383311,-0.29093 0.180287,-0.16001 0.522913,-0.47595 0.761391,-0.7021 0.238477,-0.22615 0.68652,-0.726 0.995632,-1.11079 0.309111,-0.38477 0.609973,-0.75709 0.66858,-0.82736 0.05859,-0.0703 0.106569,-0.20119 0.106569,-0.29091 0,-0.0897 0.03916,-0.16316 0.0871,-0.16316 0.04785,0 0.23829,-0.32237 0.423145,-0.71636 0.184861,-0.39399 0.336097,-0.77483 0.336097,-0.84631 0,-0.0714 0.04236,-0.12995 0.09402,-0.12995 0.05165,0 0.125161,-0.17851 0.163239,-0.3967 0.03802,-0.21819 0.135191,-0.61093 0.215806,-0.87276 0.08058,-0.26182 0.273737,-0.97589 0.429125,-1.58683 0.155412,-0.610936 0.321458,-1.187098 0.368998,-1.280367 0.04749,-0.09324 0.120219,-0.402694 0.161501,-0.687631 0.04134,-0.284919 0.10987,-0.56565 0.152437,-0.623829 0.04254,-0.05823 0.234652,-0.748452 0.426863,-1.533939 0.192216,-0.78548 0.389412,-1.444019 0.438219,-1.463402 0.04882,-0.01943 0.08873,-0.235454 0.08873,-0.480129 0,-0.24468 0.09527,-0.631619 0.211582,-0.859867 0.116369,-0.228249 0.211581,-0.595358 0.211581,-0.81578 0,-0.220434 0.03729,-0.400793 0.08268,-0.400793 0.04556,0 0.137683,-0.202325 0.204889,-0.449589 0.06722,-0.247293 0.151176,-0.628124 0.186575,-0.846314 0.03536,-0.218189 0.109822,-0.396714 0.165363,-0.396714 0.05552,0 0.101006,-0.115373 0.101006,-0.256393 0,-0.141027 0.05703,-0.509958 0.126863,-0.819866 0.06982,-0.309907 0.157247,-0.587259 0.194377,-0.616363 0.03717,-0.02909 0.121034,-0.290911 0.186472,-0.581834 0.06549,-0.290918 0.189423,-0.814567 0.275517,-1.163675 0.08614,-0.349102 0.266109,-1.039364 0.400027,-1.533927 0.13393,-0.49457 0.279512,-0.915077 0.32354,-0.934466 0.04393,-0.01943 0.07999,-0.194824 0.07999,-0.389829 0,-0.195005 0.05292,-0.488565 0.117528,-0.652365 0.06463,-0.163795 0.178977,-0.535828 0.254094,-0.826751 0.0751,-0.290923 0.264535,-1.004997 0.420931,-1.586831 0.156402,-0.581835 0.353241,-1.319709 0.437422,-1.639724 0.08422,-0.32001 0.219801,-0.843672 0.301351,-1.163669 0.08153,-0.320027 0.250903,-0.938883 0.376318,-1.375262 0.125415,-0.436373 0.291574,-1.055241 0.369226,-1.37525 0.0777,-0.320016 0.259924,-1.011859 0.40503,-1.537461 0.145105,-0.525583 0.321808,-1.096846 0.392659,-1.269463 0.07087,-0.172623 0.193556,-0.46386 0.272656,-0.647194 0.07913,-0.183346 0.143821,-0.384373 0.143821,-0.446722 0,-0.06232 0.12364,-0.374495 0.274768,-0.693671 0.151122,-0.319177 0.341541,-0.635741 0.423151,-0.703472 0.08163,-0.06771 0.148389,-0.177463 0.148389,-0.243848 0,-0.06636 0.175634,-0.381887 0.390311,-0.701118 0.214671,-0.319231 0.854214,-1.032672 1.421203,-1.58542 0.566983,-0.552742 1.225232,-1.18351 1.462762,-1.401705 0.237536,-0.218189 0.478687,-0.396708 0.535894,-0.396708 0.05721,0 0.10401,-0.07145 0.10401,-0.158683 0,-0.0873 0.0516,-0.158677 0.114614,-0.158677 0.06299,0 0.266924,-0.154719 0.453104,-0.343816 0.18618,-0.189097 0.69355,-0.653246 1.12752,-1.03144 0.43395,-0.378188 0.97541,-0.854244 1.20325,-1.057884 0.22785,-0.203646 0.59336,-0.536877 0.81225,-0.740518 0.2189,-0.203646 0.69444,-0.632089 1.05676,-0.952099 0.36234,-0.320009 0.78271,-0.701504 0.93418,-0.847774 0.15146,-0.146258 0.56083,-0.503289 0.90971,-0.79341 0.34887,-0.29012 0.7611,-0.646506 0.91607,-0.791955 0.15496,-0.145462 0.62899,-0.573917 1.05341,-0.952105 0.42441,-0.378194 0.90766,-0.806638 1.07387,-0.952099 0.16621,-0.145462 0.48303,-0.431093 0.70403,-0.634727 0.221,-0.20364 0.4981,-0.441677 0.61576,-0.528954 0.11766,-0.08729 0.59452,-0.515714 1.05969,-0.952087 0.46517,-0.436385 1.08969,-0.982899 1.38783,-1.214491 0.29813,-0.231586 0.54206,-0.455997 0.54206,-0.498679 0,-0.04272 0.15977,-0.186442 0.35505,-0.319454 0.19528,-0.133006 0.61107,-0.456051 0.92399,-0.717888 0.31291,-0.261825 0.7839,-0.669582 1.04665,-0.906122 0.26274,-0.236541 0.57724,-0.522171 0.69888,-0.634727 0.12166,-0.112561 0.41073,-0.466491 0.64238,-0.7865 0.23165,-0.320016 0.54344,-0.819865 0.69288,-1.110776 0.14942,-0.290923 0.37211,-0.775795 0.49485,-1.077502 0.12274,-0.301707 0.22318,-0.714286 0.22318,-0.91684 0,-0.20255 0.0586,-0.38781 0.13019,-0.41168 0.0946,-0.0315 0.13077,-0.44579 0.13224,-1.51631 0.002,-1.11965 -0.045,-1.63781 -0.19369,-2.16053 -0.10765,-0.37819 -0.26989,-0.90184 -0.36056,-1.16366 -0.0907,-0.26184 -0.19628,-0.49985 -0.23473,-0.52896 -0.0384,-0.0291 -0.17296,-0.26711 -0.29893,-0.52893 -0.12598,-0.26183 -0.37358,-0.64267 -0.55022,-0.84631 -0.17663,-0.20366 -0.42732,-0.52727 -0.55707,-0.71917 -0.12974,-0.1919 -0.68815,-0.67191 -1.24089,-1.06671 -0.55275,-0.39478 -1.19542,-0.80232 -1.42815,-0.90564 -0.23275,-0.10332 -0.56139,-0.25407 -0.73033,-0.33499 -0.16895,-0.081 -0.46648,-0.14716 -0.66118,-0.14716 -0.19471,0 -0.35401,-0.0377 -0.35401,-0.0839 0,-0.0462 -0.28321,-0.14679 -0.62938,-0.22359 -0.50782,-0.11265 -3.14332,-0.13219 -13.647974,-0.10116 -7.160246,0.0211 -13.126457,0.0672 -13.258245,0.10235 z M 39.692462,54.322537 c 0,0.02909 -0.0238,0.05292 -0.0529,0.05292 -0.0291,0 -0.0529,-0.02384 -0.0529,-0.05292 0,-0.02909 0.0238,-0.05292 0.0529,-0.05292 0.0291,0 0.0529,0.02384 0.0529,0.05292 z"
       transform="matrix(0.00738532,0,0,0.00722564,-0.65525492,0.92517923)" /><path
       style="display:inline;fill:#21264e;fill-opacity:1;stroke-width:0.00730507"
       d="M 0.42287012,1.5185083 V 1.370662 H 0.37597322 0.32907632 V 1.327647 1.284631 h 0.13678219 0.13678236 v 0.043016 0.043015 h -0.04592 -0.04592 l -2.953e-5,0.1084936 -2.955e-5,0.1084935 -0.00296,0.0123 -0.00296,0.012301 -0.00567,0.00968 -0.00567,0.00968 -0.009415,0.00921 -0.009415,0.00921 -0.013679,0.00656 -0.0136791,0.00656 -0.0122122,0.0016 -0.0122123,0.0016 z M 0.65149195,1.4738973 V 1.2827191 h 0.0870572 0.0870572 l 0.0140637,0.00311 0.0140637,0.00309 0.0117245,0.00521 0.0117245,0.00521 0.0121185,0.00898 0.0121186,0.00898 0.009095,0.011841 0.009095,0.011841 0.005426,0.010525 0.005426,0.010526 0.004378,0.013386 0.004378,0.013386 9.4506e-4,0.026765 9.4505e-4,0.026765 -0.004193,0.017207 -0.004193,0.017207 -0.006756,0.013386 -0.006756,0.013386 -0.008775,0.010938 -0.008775,0.010939 -0.00949,0.00722 -0.00949,0.00722 -0.005375,0.00383 -0.005375,0.00383 0.0255959,0.056862 0.025596,0.056862 v 0.00196 0.00196 l -0.0469961,-5.088e-4 -0.0469851,-5.121e-4 -0.0231592,-0.050662 -0.0231592,-0.050662 -0.0226724,-5.381e-4 -0.0226724,-5.384e-4 v 0.051679 0.051679 h -0.0429886 -0.0429886 z m 0.17541048,-0.00104 0.007238,-0.00295 0.004612,-0.00421 0.004612,-0.00421 0.003671,-0.00701 0.003671,-0.00701 0.002272,-0.013463 0.002272,-0.013463 -0.002408,-0.011995 -0.002408,-0.011994 -0.003547,-0.00673 -0.003547,-0.00673 -0.005551,-0.00514 -0.005551,-0.00514 -0.0055,-0.00203 -0.0055,-0.00203 h -0.0418846 -0.0418846 v 0.053531 0.05353 h 0.0410973 0.0410973 z m 0.18803957,0.00104 v -0.066849 h 0.085977 v 0.066849 0.1911784 H 1.0579307 1.014942 Z M 2.1013841,1.474847 V 1.2846309 h 0.1162655 0.1162655 v 0.042059 0.042059 h -0.072299 -0.072299 v 0.031544 0.031544 h 0.047911 0.047911 L 2.2846122,1.4743739 2.284086,1.5169119 2.2367,1.5174239 2.189314,1.517936 V 1.549447 1.580958 H 2.261613 2.333912 V 1.623017 1.665076 H 2.2176494 2.1013839 Z m -0.8490092,0.1840099 -0.00104,-0.0043 -0.041104,-0.1825752 -0.041103,-0.1825754 -0.0011,-0.0043 -0.0011,-0.0043 h 0.044742 0.044742 l 0.031189,0.1375488 0.031189,0.1375488 0.00126,-0.00133 0.00126,-0.00133 0.032573,-0.1328689 0.032573,-0.1328688 9.804e-4,-0.00335 9.804e-4,-0.00335 h 0.045788 0.045788 v 8.687e-4 8.69e-4 l 0.033195,0.1334334 0.033195,0.1334334 0.00161,0.00366 0.00161,0.00366 0.01693,-0.075346 0.01693,-0.075346 0.014026,-0.062612 0.014026,-0.062612 h 0.044645 0.044646 l -7.4e-5,4.79e-4 -7.38e-5,4.777e-4 -0.042625,0.1902214 -0.042625,0.1902223 -0.065362,5.029e-4 -0.065362,5.028e-4 -0.024079,-0.097047 -0.02408,-0.097049 -0.00148,-0.0027 -0.00148,-0.0027 -0.014035,0.056221 -0.014037,0.056221 -0.010791,0.043494 -0.010791,0.043492 H 1.3186597 1.2534007 Z M 1.7594284,1.4720226 V 1.2808074 l 0.087442,3.62e-5 0.087442,3.62e-5 0.01351,0.0028 0.01351,0.0028 0.0119,0.00551 0.011899,0.00551 0.011837,0.00859 0.011837,0.00859 0.00939,0.012208 0.00939,0.012208 0.00543,0.010525 0.00543,0.010525 0.00438,0.013386 0.00438,0.013386 9.68e-4,0.026873 9.677e-4,0.026873 -0.00412,0.016142 -0.00412,0.016142 -0.00896,0.017783 -0.00896,0.017783 -0.015012,0.014855 -0.015012,0.014855 -0.014651,0.00708 -0.014652,0.00708 -0.010743,0.00303 -0.010743,0.00303 -0.047355,9.592e-4 -0.047355,9.592e-4 -5.205e-4,0.050925 -5.206e-4,0.050925 -0.043477,5.148e-4 -0.043477,5.148e-4 z m 0.1724969,-1.515e-4 0.00738,-0.002 0.00653,-0.00561 0.00653,-0.00561 0.0045,-0.010051 0.0045,-0.010052 8.58e-5,-0.017207 8.56e-5,-0.017206 -0.00271,-0.00765 -0.00271,-0.00765 -0.00461,-0.00684 -0.00461,-0.00684 -0.00755,-0.00416 -0.00755,-0.00416 h -0.042235 -0.042235 v 0.05353 0.05353 l 0.038593,-7.3e-6 0.038591,-1.45e-5 z M 1.016672,1.3466142 v -0.066849 h 0.085977 v 0.066849 z"
       id="path4"
       sodipodi:nodetypes="cccccccccccccccccccccccccccccccccccccccccccccccccccccccccccccccccccccccccccccccccccccccccccccccccccccccccccccccccccccccccccccccccccccccccccccccccccccccccccccccccccccccccccccccccccccccccccccccccccccccccccccccccccccccccccccccccccccccc" /></g></svg>
