<?xml version="1.0" encoding="UTF-8" standalone="no"?>
<!-- Created with Inkscape (http://www.inkscape.org/) -->

<svg
   width="154.48062"
   height="42.438133"
   viewBox="0 0 2.1455644 0.58941852"
   version="1.1"
   id="svg1"
   inkscape:version="1.3.2 (091e20ef0f, 2023-11-25)"
   sodipodi:docname="logo2.svg"
   xml:space="preserve"
   xmlns:inkscape="http://www.inkscape.org/namespaces/inkscape"
   xmlns:sodipodi="http://sodipodi.sourceforge.net/DTD/sodipodi-0.dtd"
   xmlns="http://www.w3.org/2000/svg"
   xmlns:svg="http://www.w3.org/2000/svg"><sodipodi:namedview
     id="namedview1"
     pagecolor="#505050"
     bordercolor="#eeeeee"
     borderopacity="1"
     inkscape:showpageshadow="0"
     inkscape:pageopacity="0"
     inkscape:pagecheckerboard="0"
     inkscape:deskcolor="#505050"
     inkscape:document-units="mm"
     inkscape:zoom="7.9321548"
     inkscape:cx="58.559119"
     inkscape:cy="-9.2660824"
     inkscape:window-width="2560"
     inkscape:window-height="1343"
     inkscape:window-x="0"
     inkscape:window-y="0"
     inkscape:window-maximized="1"
     inkscape:current-layer="layer1"
     showguides="true"><sodipodi:guide
       position="1.11306,0.6075034"
       orientation="0,-1"
       id="guide3"
       inkscape:locked="false" /><sodipodi:guide
       position="1.0065821,0.5455976"
       orientation="0,-1"
       id="guide4"
       inkscape:locked="false" /><sodipodi:guide
       position="0.71400464,-0.051772188"
       orientation="0,-1"
       id="guide5"
       inkscape:locked="false" /><sodipodi:guide
       position="0.88198998,0.0051928111"
       orientation="0,-1"
       id="guide6"
       inkscape:locked="false" /></sodipodi:namedview><defs
     id="defs1"><clipPath
       clipPathUnits="userSpaceOnUse"
       id="clipPath15"><path
         d="M 0,772.853 H 1755.659 V 0 H 0 Z"
         transform="translate(-550.58111,-489.58881)"
         id="path15" /></clipPath><inkscape:path-effect
       effect="fillet_chamfer"
       id="path-effect9-4"
       is_visible="true"
       lpeversion="1"
       nodesatellites_param="F,0,0,1,0,0,0,1 @ F,0,0,1,0,0,0,1 @ F,0,0,1,0,0,0,1 @ F,0,0,1,0,0,0,1 @ F,0,0,1,0,0,0,1 @ F,0,0,1,0,0,0,1 @ F,0,0,1,0,0,0,1 @ F,0,0,1,0,0,0,1 @ F,0,0,1,0,0,0,1 @ F,0,0,1,0,0,0,1 @ F,0,0,1,0,0,0,1 @ F,0,0,1,0,0,0,1 @ F,0,0,1,0,0,0,1 @ F,0,0,1,0,0,0,1 @ F,0,0,1,0,0,0,1 @ F,0,0,1,0,0,0,1 @ F,0,0,1,0,0,0,1 @ F,0,0,1,0,0,0,1 @ F,0,0,1,0,0,0,1 @ F,0,0,1,0,0,0,1 @ F,0,0,1,0,0,0,1 @ F,0,0,1,0,0,0,1 @ F,0,0,1,0,0,0,1 @ F,0,0,1,0,0,0,1 @ F,0,0,1,0,0,0,1 @ F,0,0,1,0,0,0,1 @ F,0,0,1,0,0,0,1 @ F,0,0,1,0,0,0,1 @ F,0,0,1,0,0,0,1 @ F,0,0,1,0,0,0,1 @ F,0,0,1,0,0,0,1 @ F,0,0,1,0,0,0,1 @ F,0,0,1,0,0,0,1 @ F,0,0,1,0,0,0,1 @ F,0,0,1,0,0,0,1 @ F,0,0,1,0,0,0,1 @ F,0,0,1,0,0,0,1 @ F,0,0,1,0,0,0,1 @ F,0,0,1,0,0,0,1 @ F,0,0,1,0,0,0,1 @ F,0,0,1,0,0,0,1 @ F,0,0,1,0,0,0,1 @ F,0,0,1,0,0,0,1 @ F,0,0,1,0,0,0,1 @ F,0,0,1,0,0,0,1 @ F,0,0,1,0,0,0,1 @ F,0,0,1,0,0,0,1 @ F,0,0,1,0,0,0,1 @ F,0,0,1,0,0,0,1 @ F,0,0,1,0,0,0,1 @ F,0,0,1,0,0,0,1 @ F,0,0,1,0,0,0,1 @ F,0,0,1,0,0,0,1 @ F,0,0,1,0,0,0,1 @ F,0,0,1,0,0,0,1 @ F,0,0,1,0,0,0,1 @ F,0,0,1,0,0,0,1 @ F,0,0,1,0,0,0,1 @ F,0,0,1,0,0,0,1 @ F,0,0,1,0,0,0,1 @ F,0,0,1,0,0,0,1 @ F,0,0,1,0,0,0,1 @ F,0,0,1,0,0,0,1 @ F,0,0,1,0,0,0,1 @ F,0,0,1,0,0,0,1 @ F,0,0,1,0,0,0,1 @ F,0,0,1,0,0,0,1 @ F,0,0,1,0,0,0,1 @ F,0,0,1,0,0,0,1 @ F,0,0,1,0,0,0,1 @ F,0,0,1,0,0,0,1 @ F,0,0,1,0,0,0,1 @ F,0,0,1,0,0,0,1 @ F,0,0,1,0,0,0,1 @ F,0,0,1,0,0,0,1 @ F,0,0,1,0,0,0,1 @ F,0,0,1,0,0,0,1 @ F,0,0,1,0,0,0,1 @ F,0,0,1,0,0,0,1 @ F,0,0,1,0,0,0,1 @ F,0,0,1,0,0,0,1 @ F,0,0,1,0,0,0,1 @ F,0,0,1,0,0,0,1 @ F,0,0,1,0,0,0,1 @ F,0,0,1,0,0,0,1 @ F,0,0,1,0,0,0,1 @ F,0,0,1,0,0,0,1 @ F,0,0,1,0,0,0,1 @ F,0,0,1,0,0,0,1 @ F,0,0,1,0,0,0,1 @ F,0,0,1,0,0,0,1 @ F,0,0,1,0,0,0,1 @ F,0,0,1,0,0,0,1 @ F,0,0,1,0,0,0,1 @ F,0,0,1,0,0,0,1 @ F,0,0,1,0,0,0,1 @ F,0,0,1,0,0,0,1 @ F,0,0,1,0,0,0,1 @ F,0,0,1,0,0,0,1 @ F,0,0,1,0,0,0,1 @ F,0,0,1,0,0,0,1 @ F,0,0,1,0,0,0,1 @ F,0,0,1,0,0,0,1 @ F,0,0,1,0,0,0,1 @ F,0,0,1,0,0,0,1 @ F,0,0,1,0,0,0,1 @ F,0,0,1,0,0,0,1 @ F,0,0,1,0,0,0,1 @ F,0,0,1,0,0,0,1 @ F,0,0,1,0,0,0,1 @ F,0,0,1,0,0,0,1 @ F,0,0,1,0,0,0,1 @ F,0,0,1,0,0,0,1 @ F,0,0,1,0,0,0,1 @ F,0,0,1,0,0,0,1 @ F,0,0,1,0,0,0,1 @ F,0,0,1,0,0,0,1 @ F,0,0,1,0,0,0,1 @ F,0,0,1,0,0,0,1 @ F,0,0,1,0,0,0,1 @ F,0,0,1,0,0,0,1 @ F,0,0,1,0,0,0,1 @ F,0,0,1,0,0,0,1 @ F,0,0,1,0,0,0,1 @ F,0,0,1,0,0,0,1 @ F,0,0,1,0,0,0,1 @ F,0,0,1,0,0,0,1 @ F,0,0,1,0,0,0,1 @ F,0,0,1,0,0,0,1 @ F,0,0,1,0,0,0,1 @ F,0,0,1,0,0,0,1 @ F,0,0,1,0,0,0,1 @ F,0,0,1,0,0,0,1 @ F,0,0,1,0,0,0,1 @ F,0,0,1,0,0,0,1 @ F,0,0,1,0,0,0,1 @ F,0,0,1,0,0,0,1 @ F,0,0,1,0,0,0,1 @ F,0,0,1,0,0,0,1 @ F,0,0,1,0,0,0,1 @ F,0,0,1,0,0,0,1 @ F,0,0,1,0,0,0,1 @ F,0,0,1,0,0,0,1 @ F,0,0,1,0,0,0,1 @ F,0,0,1,0,0,0,1 @ F,0,0,1,0,0,0,1 @ F,0,0,1,0,0,0,1 @ F,0,0,1,0,0,0,1 @ F,0,0,1,0,0,0,1 @ F,0,0,1,0,0,0,1 @ F,0,0,1,0,0,0,1 @ F,0,0,1,0,0,0,1 @ F,0,0,1,0,0,0,1 @ F,0,0,1,0,0,0,1 @ F,0,0,1,0,0,0,1 @ F,0,0,1,0,0,0,1 @ F,0,0,1,0,0,0,1 @ F,0,0,1,0,0,0,1 @ F,0,0,1,0,0,0,1 @ F,0,0,1,0,0,0,1 @ F,0,0,1,0,0,0,1 @ F,0,0,1,0,0,0,1 @ F,0,0,1,0,0,0,1 @ F,0,0,1,0,0,0,1 @ F,0,0,1,0,0,0,1 @ F,0,0,1,0,0,0,1 @ F,0,0,1,0,0,0,1 @ F,0,0,1,0,0,0,1 @ F,0,0,1,0,0,0,1 @ F,0,0,1,0,0,0,1 @ F,0,0,1,0,0,0,1 @ F,0,0,1,0,0,0,1 @ F,0,0,1,0,0,0,1 @ F,0,0,1,0,0,0,1 @ F,0,0,1,0,0,0,1 @ F,0,0,1,0,0,0,1 @ F,0,0,1,0,0,0,1 @ F,0,0,1,0,0,0,1 @ F,0,0,1,0,0,0,1 @ F,0,0,1,0,0,0,1 @ F,0,0,1,0,0,0,1 @ F,0,0,1,0,0,0,1 @ F,0,0,1,0,0,0,1 @ F,0,0,1,0,0,0,1 @ F,0,0,1,0,0,0,1 @ F,0,0,1,0,0,0,1 @ F,0,0,1,0,0,0,1 @ F,0,0,1,0,0,0,1 @ F,0,0,1,0,0,0,1 @ F,0,0,1,0,0,0,1 @ F,0,0,1,0,0,0,1 @ F,0,0,1,0,0,0,1 @ F,0,0,1,0,0,0,1 @ F,0,0,1,0,0,0,1 @ F,0,0,1,0,0,0,1 @ F,0,0,1,0,0,0,1 @ F,0,0,1,0,0,0,1 @ F,0,0,1,0,0,0,1 @ F,0,0,1,0,0,0,1 @ F,0,0,1,0,0,0,1 @ F,0,0,1,0,0,0,1 @ F,0,0,1,0,0,0,1 @ F,0,0,1,0,0,0,1 @ F,0,0,1,0,0,0,1 @ F,0,0,1,0,0,0,1 @ F,0,0,1,0,0,0,1 @ F,0,0,1,0,0,0,1 @ F,0,0,1,0,0,0,1 @ F,0,0,1,0,0,0,1 @ F,0,0,1,0,0,0,1 @ F,0,0,1,0,0,0,1 @ F,0,0,1,0,0,0,1 @ F,0,0,1,0,0,0,1 @ F,0,0,1,0,0,0,1 @ F,0,0,1,0,0,0,1 @ F,0,0,1,0,0,0,1 @ F,0,0,1,0,0,0,1 @ F,0,0,1,0,0,0,1 @ F,0,0,1,0,0,0,1 @ F,0,0,1,0,0,0,1 @ F,0,0,1,0,0,0,1 @ F,0,0,1,0,0,0,1 @ F,0,0,1,0,0,0,1 @ F,0,0,1,0,0,0,1 @ F,0,0,1,0,0,0,1 @ F,0,0,1,0,0,0,1 @ F,0,0,1,0,0,0,1 @ F,0,0,1,0,0,0,1 @ F,0,0,1,0,0,0,1 @ F,0,0,1,0,0,0,1 @ F,0,0,1,0,0,0,1 @ F,0,0,1,0,0,0,1 @ F,0,0,1,0,0,0,1 @ F,0,0,1,0,0,0,1 @ F,0,0,1,0,0,0,1 @ F,0,0,1,0,0,0,1 @ F,0,0,1,0,0,0,1 @ F,0,0,1,0,0,0,1 @ F,0,0,1,0,0,0,1 @ F,0,0,1,0,0,0,1 @ F,0,0,1,0,0,0,1 @ F,0,0,1,0,0,0,1 @ F,0,0,1,0,0,0,1 @ F,0,0,1,0,0,0,1 @ F,0,0,1,0,0,0,1 @ F,0,0,1,0,0,0,1 @ F,0,0,1,0,0,0,1 @ F,0,0,1,0,0,0,1 | F,0,0,1,0,0,0,1 @ F,0,0,1,0,0,0,1 @ F,0,0,1,0,0,0,1 @ F,0,0,1,0,0,0,1"
       radius="0"
       unit="px"
       method="auto"
       mode="F"
       chamfer_steps="1"
       flexible="false"
       use_knot_distance="true"
       apply_no_radius="true"
       apply_with_radius="true"
       only_selected="false"
       hide_knots="false" /><inkscape:path-effect
       effect="fillet_chamfer"
       id="path-effect9-4-1"
       is_visible="true"
       lpeversion="1"
       nodesatellites_param="F,0,0,1,0,0,0,1 @ F,0,0,1,0,0,0,1 @ F,0,0,1,0,0,0,1 @ F,0,0,1,0,0,0,1 @ F,0,0,1,0,0,0,1 @ F,0,0,1,0,0,0,1 @ F,0,0,1,0,0,0,1 @ F,0,0,1,0,0,0,1 @ F,0,0,1,0,0,0,1 @ F,0,0,1,0,0,0,1 @ F,0,0,1,0,0,0,1 @ F,0,0,1,0,0,0,1 @ F,0,0,1,0,0,0,1 @ F,0,0,1,0,0,0,1 @ F,0,0,1,0,0,0,1 @ F,0,0,1,0,0,0,1 @ F,0,0,1,0,0,0,1 @ F,0,0,1,0,0,0,1 @ F,0,0,1,0,0,0,1 @ F,0,0,1,0,0,0,1 @ F,0,0,1,0,0,0,1 @ F,0,0,1,0,0,0,1 @ F,0,0,1,0,0,0,1 @ F,0,0,1,0,0,0,1 @ F,0,0,1,0,0,0,1 @ F,0,0,1,0,0,0,1 @ F,0,0,1,0,0,0,1 @ F,0,0,1,0,0,0,1 @ F,0,0,1,0,0,0,1 @ F,0,0,1,0,0,0,1 @ F,0,0,1,0,0,0,1 @ F,0,0,1,0,0,0,1 @ F,0,0,1,0,0,0,1 @ F,0,0,1,0,0,0,1 @ F,0,0,1,0,0,0,1 @ F,0,0,1,0,0,0,1 @ F,0,0,1,0,0,0,1 @ F,0,0,1,0,0,0,1 @ F,0,0,1,0,0,0,1 @ F,0,0,1,0,0,0,1 @ F,0,0,1,0,0,0,1 @ F,0,0,1,0,0,0,1 @ F,0,0,1,0,0,0,1 @ F,0,0,1,0,0,0,1 @ F,0,0,1,0,0,0,1 @ F,0,0,1,0,0,0,1 @ F,0,0,1,0,0,0,1 @ F,0,0,1,0,0,0,1 @ F,0,0,1,0,0,0,1 @ F,0,0,1,0,0,0,1 @ F,0,0,1,0,0,0,1 @ F,0,0,1,0,0,0,1 @ F,0,0,1,0,0,0,1 @ F,0,0,1,0,0,0,1 @ F,0,0,1,0,0,0,1 @ F,0,0,1,0,0,0,1 @ F,0,0,1,0,0,0,1 @ F,0,0,1,0,0,0,1 @ F,0,0,1,0,0,0,1 @ F,0,0,1,0,0,0,1 @ F,0,0,1,0,0,0,1 @ F,0,0,1,0,0,0,1 @ F,0,0,1,0,0,0,1 @ F,0,0,1,0,0,0,1 @ F,0,0,1,0,0,0,1 @ F,0,0,1,0,0,0,1 @ F,0,0,1,0,0,0,1 @ F,0,0,1,0,0,0,1 @ F,0,0,1,0,0,0,1 @ F,0,0,1,0,0,0,1 @ F,0,0,1,0,0,0,1 @ F,0,0,1,0,0,0,1 @ F,0,0,1,0,0,0,1 @ F,0,0,1,0,0,0,1 @ F,0,0,1,0,0,0,1 @ F,0,0,1,0,0,0,1 @ F,0,0,1,0,0,0,1 @ F,0,0,1,0,0,0,1 @ F,0,0,1,0,0,0,1 @ F,0,0,1,0,0,0,1 @ F,0,0,1,0,0,0,1 @ F,0,0,1,0,0,0,1 @ F,0,0,1,0,0,0,1 @ F,0,0,1,0,0,0,1 @ F,0,0,1,0,0,0,1 @ F,0,0,1,0,0,0,1 @ F,0,0,1,0,0,0,1 @ F,0,0,1,0,0,0,1 @ F,0,0,1,0,0,0,1 @ F,0,0,1,0,0,0,1 @ F,0,0,1,0,0,0,1 @ F,0,0,1,0,0,0,1 @ F,0,0,1,0,0,0,1 @ F,0,0,1,0,0,0,1 @ F,0,0,1,0,0,0,1 @ F,0,0,1,0,0,0,1 @ F,0,0,1,0,0,0,1 @ F,0,0,1,0,0,0,1 @ F,0,0,1,0,0,0,1 @ F,0,0,1,0,0,0,1 @ F,0,0,1,0,0,0,1 @ F,0,0,1,0,0,0,1 @ F,0,0,1,0,0,0,1 @ F,0,0,1,0,0,0,1 @ F,0,0,1,0,0,0,1 @ F,0,0,1,0,0,0,1 @ F,0,0,1,0,0,0,1 @ F,0,0,1,0,0,0,1 @ F,0,0,1,0,0,0,1 @ F,0,0,1,0,0,0,1 @ F,0,0,1,0,0,0,1 @ F,0,0,1,0,0,0,1 @ F,0,0,1,0,0,0,1 @ F,0,0,1,0,0,0,1 @ F,0,0,1,0,0,0,1 @ F,0,0,1,0,0,0,1 @ F,0,0,1,0,0,0,1 @ F,0,0,1,0,0,0,1 @ F,0,0,1,0,0,0,1 @ F,0,0,1,0,0,0,1 @ F,0,0,1,0,0,0,1 @ F,0,0,1,0,0,0,1 @ F,0,0,1,0,0,0,1 @ F,0,0,1,0,0,0,1 @ F,0,0,1,0,0,0,1 @ F,0,0,1,0,0,0,1 @ F,0,0,1,0,0,0,1 @ F,0,0,1,0,0,0,1 @ F,0,0,1,0,0,0,1 @ F,0,0,1,0,0,0,1 @ F,0,0,1,0,0,0,1 @ F,0,0,1,0,0,0,1 @ F,0,0,1,0,0,0,1 @ F,0,0,1,0,0,0,1 @ F,0,0,1,0,0,0,1 @ F,0,0,1,0,0,0,1 @ F,0,0,1,0,0,0,1 @ F,0,0,1,0,0,0,1 @ F,0,0,1,0,0,0,1 @ F,0,0,1,0,0,0,1 @ F,0,0,1,0,0,0,1 @ F,0,0,1,0,0,0,1 @ F,0,0,1,0,0,0,1 @ F,0,0,1,0,0,0,1 @ F,0,0,1,0,0,0,1 @ F,0,0,1,0,0,0,1 @ F,0,0,1,0,0,0,1 @ F,0,0,1,0,0,0,1 @ F,0,0,1,0,0,0,1 @ F,0,0,1,0,0,0,1 @ F,0,0,1,0,0,0,1 @ F,0,0,1,0,0,0,1 @ F,0,0,1,0,0,0,1 @ F,0,0,1,0,0,0,1 @ F,0,0,1,0,0,0,1 @ F,0,0,1,0,0,0,1 @ F,0,0,1,0,0,0,1 @ F,0,0,1,0,0,0,1 @ F,0,0,1,0,0,0,1 @ F,0,0,1,0,0,0,1 @ F,0,0,1,0,0,0,1 @ F,0,0,1,0,0,0,1 @ F,0,0,1,0,0,0,1 @ F,0,0,1,0,0,0,1 @ F,0,0,1,0,0,0,1 @ F,0,0,1,0,0,0,1 @ F,0,0,1,0,0,0,1 @ F,0,0,1,0,0,0,1 @ F,0,0,1,0,0,0,1 @ F,0,0,1,0,0,0,1 @ F,0,0,1,0,0,0,1 @ F,0,0,1,0,0,0,1 @ F,0,0,1,0,0,0,1 @ F,0,0,1,0,0,0,1 @ F,0,0,1,0,0,0,1 @ F,0,0,1,0,0,0,1 @ F,0,0,1,0,0,0,1 @ F,0,0,1,0,0,0,1 @ F,0,0,1,0,0,0,1 @ F,0,0,1,0,0,0,1 @ F,0,0,1,0,0,0,1 @ F,0,0,1,0,0,0,1 @ F,0,0,1,0,0,0,1 @ F,0,0,1,0,0,0,1 @ F,0,0,1,0,0,0,1 @ F,0,0,1,0,0,0,1 @ F,0,0,1,0,0,0,1 @ F,0,0,1,0,0,0,1 @ F,0,0,1,0,0,0,1 @ F,0,0,1,0,0,0,1 @ F,0,0,1,0,0,0,1 @ F,0,0,1,0,0,0,1 @ F,0,0,1,0,0,0,1 @ F,0,0,1,0,0,0,1 @ F,0,0,1,0,0,0,1 @ F,0,0,1,0,0,0,1 @ F,0,0,1,0,0,0,1 @ F,0,0,1,0,0,0,1 @ F,0,0,1,0,0,0,1 @ F,0,0,1,0,0,0,1 @ F,0,0,1,0,0,0,1 @ F,0,0,1,0,0,0,1 @ F,0,0,1,0,0,0,1 @ F,0,0,1,0,0,0,1 @ F,0,0,1,0,0,0,1 @ F,0,0,1,0,0,0,1 @ F,0,0,1,0,0,0,1 @ F,0,0,1,0,0,0,1 @ F,0,0,1,0,0,0,1 @ F,0,0,1,0,0,0,1 @ F,0,0,1,0,0,0,1 @ F,0,0,1,0,0,0,1 @ F,0,0,1,0,0,0,1 @ F,0,0,1,0,0,0,1 @ F,0,0,1,0,0,0,1 @ F,0,0,1,0,0,0,1 @ F,0,0,1,0,0,0,1 @ F,0,0,1,0,0,0,1 @ F,0,0,1,0,0,0,1 @ F,0,0,1,0,0,0,1 @ F,0,0,1,0,0,0,1 @ F,0,0,1,0,0,0,1 @ F,0,0,1,0,0,0,1 @ F,0,0,1,0,0,0,1 @ F,0,0,1,0,0,0,1 @ F,0,0,1,0,0,0,1 @ F,0,0,1,0,0,0,1 @ F,0,0,1,0,0,0,1 @ F,0,0,1,0,0,0,1 @ F,0,0,1,0,0,0,1 @ F,0,0,1,0,0,0,1 @ F,0,0,1,0,0,0,1 @ F,0,0,1,0,0,0,1 @ F,0,0,1,0,0,0,1 @ F,0,0,1,0,0,0,1 @ F,0,0,1,0,0,0,1 @ F,0,0,1,0,0,0,1 @ F,0,0,1,0,0,0,1 @ F,0,0,1,0,0,0,1 @ F,0,0,1,0,0,0,1 @ F,0,0,1,0,0,0,1 @ F,0,0,1,0,0,0,1 @ F,0,0,1,0,0,0,1 @ F,0,0,1,0,0,0,1 @ F,0,0,1,0,0,0,1 @ F,0,0,1,0,0,0,1 @ F,0,0,1,0,0,0,1 @ F,0,0,1,0,0,0,1 | F,0,0,1,0,0,0,1 @ F,0,0,1,0,0,0,1 @ F,0,0,1,0,0,0,1 @ F,0,0,1,0,0,0,1"
       radius="0"
       unit="px"
       method="auto"
       mode="F"
       chamfer_steps="1"
       flexible="false"
       use_knot_distance="true"
       apply_no_radius="true"
       apply_with_radius="true"
       only_selected="false"
       hide_knots="false" /></defs><g
     inkscape:label="Layer 1"
     inkscape:groupmode="layer"
     id="layer1"
     transform="translate(0.49202672,-1.4456291)"><path
       id="path14"
       d="m 0,0 c 0,-13.117 -10.677,-23.81 -23.811,-23.81 h -42.833 -22.752 c -4.695,7.32 -9.423,14.693 -14.185,22.149 l -1.814,2.813 c 0,0.001 10e-4,0.001 10e-4,0.001 7.168,24.437 29.793,42.334 56.518,42.334 H 0 Z m -56.655,-111.444 c 7.508,-11.626 11.473,-25.014 11.473,-38.724 0,-16.32 -5.728,-32.302 -16.133,-44.995 -19.761,-24.133 -52.52,-32.504 -81.516,-20.862 -28.81,11.575 -46.621,40.148 -44.334,71.127 0.915,12.117 5.05,23.743 12.643,35.521 14.303,22.117 28.268,43.961 43.639,68.026 h 29.251 c 1.474,-2.304 2.948,-4.61 4.423,-6.914 l 12.269,-19.134 c 8.745,-13.676 18.625,-29.114 28.285,-44.045 m -99.069,87.634 h -53.556 c -13.134,0 -23.811,10.676 -23.811,23.81 v 43.487 h 48.892 c 26.912,0 49.706,-18.185 56.688,-42.91 -1.288,-1.984 -2.559,-3.983 -3.83,-5.983 l -11.778,-18.404 z m 39.449,5.286 c 1.135,-1.775 2.258,-3.524 3.39,-5.286 h -6.773 z m 67.399,79.551 c -29.335,0 -54.858,-16.609 -67.652,-40.911 0,0 -10e-4,0 -10e-4,0 0,0 0,0 0,0 -12.829,24.302 -38.351,40.911 -67.67,40.911 h -66.433 V 0 c 0,-22.811 18.557,-41.351 41.352,-41.351 h 53.556 1.386 c -12.1,-18.93 -24.505,-38.3 -36.792,-57.298 -9.423,-14.609 -14.592,-29.268 -15.744,-44.774 -2.932,-39.606 19.845,-76.144 56.671,-90.939 10.965,-4.406 22.438,-6.643 34.098,-6.643 27.183,0 52.739,12.151 70.093,33.318 25.099,30.623 27.489,73.619 5.965,106.953 -8.219,12.727 -16.506,25.675 -24.624,38.335 l -13.473,21.048 h 11.5 42.833 C -1,-41.351 17.54,-22.793 17.54,0 v 61.027 z"
       style="display:none;fill:#ed6626;fill-opacity:0.980392;fill-rule:nonzero;stroke:none"
       transform="matrix(0.00217321,0,0,-0.00217321,0.22898687,1.2453142)"
       clip-path="url(#clipPath15)" /><path
       style="display:inline;fill:#21264e;fill-opacity:1;stroke-width:0.00348632"
       d="m 1.1054096,1.8648707 c 3.737e-4,-0.1622903 2.131e-4,-0.1569968 0.00518,-0.1827568 0.00918,-0.047559 0.031761,-0.077108 0.068705,-0.089921 0.024256,-0.0084 0.060109,-0.010171 0.087696,-0.00433 0.052187,0.011074 0.078978,0.046651 0.087314,0.1159308 0.0019,0.015851 0.00216,0.062837 3.999e-4,0.078928 -0.00459,0.042409 -0.014789,0.070914 -0.03233,0.090338 -0.01919,0.021248 -0.042985,0.030482 -0.0785,0.030464 -0.017417,-7.2e-6 -0.02717,-0.00168 -0.039957,-0.00683 -0.01442,-0.00581 -0.028516,-0.017991 -0.035595,-0.030749 l -0.00308,-0.00557 -2.307e-4,0.077431 -2.309e-4,0.077432 h -0.029861 -0.029861 z m 0.1420885,-0.018618 c 0.019743,-0.00358 0.032857,-0.015108 0.040689,-0.035748 0.00917,-0.024164 0.0114,-0.080014 0.0046,-0.1153226 -0.00577,-0.029991 -0.018309,-0.045939 -0.041203,-0.052442 -0.00833,-0.00237 -0.033189,-0.00231 -0.041576,8.84e-5 -0.027816,0.00794 -0.040668,0.030384 -0.04426,0.077203 -0.00246,0.031977 9.11e-5,0.066004 0.0064,0.085766 0.00768,0.024024 0.021538,0.037039 0.043489,0.040847 0.00772,0.00134 0.023369,0.00114 0.031864,-3.912e-4 z m -0.47268477,0.057361 c -0.0204976,-0.00205 -0.0334542,-0.00718 -0.0443411,-0.01754 -0.0136816,-0.013025 -0.02303,-0.034867 -0.0283124,-0.066155 -0.001593,-0.00943 -0.0245065,-0.2195502 -0.0245065,-0.2247229 0,-0.00158 0.001739,-0.00169 0.0292714,-0.00169 h 0.0292714 l 5.3896e-4,0.00401 c 2.9606e-4,0.00222 0.005226,0.048268 0.0109457,0.1023776 0.00603,0.057043 0.0113671,0.1034862 0.0126967,0.1105364 0.003649,0.019359 0.008448,0.029252 0.0166113,0.03425 0.00369,0.00226 0.005071,0.00255 0.012357,0.00255 0.007558,0 0.008553,-2.244e-4 0.0126414,-0.00286 0.008659,-0.00558 0.0139399,-0.017092 0.0175133,-0.038205 9.9979e-4,-0.00589 0.006299,-0.054349 0.0117856,-0.1076793 0.005487,-0.053331 0.0102182,-0.098765 0.01052,-0.1009651 l 5.4565e-4,-0.004 h 0.0296211 0.0296211 l 5.389e-4,0.004 c 2.962e-4,0.00222 0.00522,0.048271 0.010946,0.1023776 0.00603,0.057043 0.011368,0.1034862 0.012697,0.1105365 0.00365,0.019359 0.00845,0.029252 0.016612,0.03425 0.00368,0.00225 0.00508,0.00255 0.012286,0.00255 0.00729,0 0.00858,-2.75e-4 0.01246,-0.00266 0.00815,-0.00499 0.013306,-0.015264 0.016985,-0.033843 0.00105,-0.0053 0.00685,-0.056236 0.012915,-0.1131924 l 0.011009,-0.1035627 0.02966,-2.483e-4 0.029659,-2.478e-4 -5.322e-4,0.00353 c -2.937e-4,0.00194 -0.00541,0.049507 -0.011355,0.1056861 -0.00595,0.056179 -0.011638,0.1071216 -0.01264,0.1132084 -0.00828,0.050473 -0.024615,0.075862 -0.054269,0.084436 -0.014413,0.00417 -0.037547,0.00442 -0.051969,5.37e-4 -0.016021,-0.0043 -0.029897,-0.016111 -0.037789,-0.032171 -0.00928,-0.018881 -0.014079,-0.041457 -0.017289,-0.081284 -0.0059,-0.073265 -0.00817,-0.096965 -0.00928,-0.096965 -6.429e-4,0 -0.00118,2.12e-4 -0.00118,4.71e-4 0,0.00427 -0.010259,0.1185428 -0.011267,0.12551 -0.00792,0.054745 -0.0247378,0.079649 -0.0578732,0.085722 -0.006242,0.00114 -0.0217995,0.00198 -0.0271145,0.00144 z M 1.505173,1.9032056 C 1.438776,1.8970556 1.4039398,1.8597816 1.3943176,1.7846149 c -0.00263,-0.020595 -0.0024,-0.064757 4.529e-4,-0.086139 0.00524,-0.039156 0.01632,-0.065371 0.035714,-0.084506 0.015314,-0.015111 0.032936,-0.02329 0.059523,-0.027627 0.011648,-0.00189 0.041961,-0.00217 0.053485,-4.669e-4 0.032705,0.00481 0.055936,0.017162 0.072357,0.038445 0.020083,0.026033 0.029586,0.067258 0.027501,0.1193269 l -6.649e-4,0.01649 h -0.095525 -0.095525 l 2.934e-4,0.00587 c 0.00187,0.037736 0.00862,0.060268 0.022384,0.074629 0.00724,0.00757 0.013961,0.011611 0.02447,0.014714 0.00948,0.00281 0.03099,0.0031 0.040188,5.419e-4 0.019484,-0.00541 0.03283,-0.019446 0.03871,-0.040695 9.857e-4,-0.0036 0.00205,-0.00776 0.00238,-0.00917 l 5.321e-4,-0.00257 h 0.029825 0.029825 l -5.864e-4,0.00257 c -0.00179,0.0079 -0.00877,0.02815 -0.012074,0.035068 -0.016334,0.034065 -0.041808,0.053917 -0.077303,0.060239 -0.012002,0.00213 -0.032875,0.00302 -0.045107,0.00186 z M 1.583271,1.7145285 c 0,-0.00725 -0.00267,-0.026042 -0.00503,-0.035352 -0.00879,-0.034781 -0.029607,-0.050456 -0.064565,-0.048631 -0.018725,9.82e-4 -0.029775,0.00534 -0.039809,0.01568 -0.012281,0.012665 -0.018719,0.032339 -0.021184,0.064722 l -5.865e-4,0.00778 h 0.065589 0.065587 z M 0.30980401,1.8937416 c -0.0587281,-0.00385 -0.084286,-0.02577 -0.0908484,-0.077874 -0.001089,-0.00865 -0.001337,-0.02508 -0.001337,-0.088258 v -0.077618 l -4.5626e-4,-0.056125 2.3762e-4,-0.033129 2.3752e-4,-0.033129 h 0.0298148 0.0298144 v 0.032948 0.032949 h 0.0343442 0.0343443 v 0.028242 0.028242 h -0.0343812 -0.0343807 l 3.0418e-4,0.074607 c 2.6421e-4,0.064926 4.8932e-4,0.075237 0.001739,0.079467 0.007144,0.024148 0.0204675,0.032767 0.0524826,0.033952 l 0.014235,5.255e-4 v 0.028111 0.02811 l -0.0124278,-1.382e-4 c -0.006836,-7.6e-5 -0.0175109,-4.727e-4 -0.0237249,-8.813e-4 z m 0.0734778,-0.1103021 c 3.0151e-4,-0.095518 5.4888e-4,-0.1124004 0.001748,-0.1189246 0.002332,-0.012671 0.005038,-0.021748 0.008771,-0.02938 0.0151461,-0.031004 0.0443922,-0.041584 0.11506508,-0.041617 l 0.0178499,-7e-6 v 0.028127 0.028127 l -0.0219173,4.74e-4 c -0.0182684,3.948e-4 -0.0230689,7.956e-4 -0.028835,0.00241 -0.017367,0.00486 -0.0261441,0.013634 -0.0307804,0.030788 l -0.002031,0.00752 -2.8013e-4,0.1019091 -2.8014e-4,0.101909 h -0.02983 -0.0298327 z M 0.57190835,1.7441346 V 1.5935089 h 0.0298264 0.0298255 v 0.1506258 0.1506258 h -0.0298256 -0.0298263 z m 9.5046e-4,-0.2297044 v -0.030124 h 0.028879 0.0287439 v 0.030125 0.030126 h -0.0287439 -0.028879 z"
       id="path16"
       sodipodi:nodetypes="ccssscscsscccccccssscscsccccssscccsssccscccccscssccsccccccscscsscscccsssscscccccsscccccccssccssssccccscsscccccccccccccccccccccccccscccccsscccccccccccccccccccccccc" /><path
       id="path1-65"
       style="display:inline;mix-blend-mode:normal;fill:#1fd79b;fill-opacity:1;stroke-width:0.399832"
       d="M 108.76926 36.298069 C 106.73383 36.282982 103.45051 36.286308 98.198191 36.301823 C 91.200601 36.322444 85.625125 36.364614 85.239629 36.399433 A 11.672283 11.93023 0 0 1 75.697014 41.501436 A 11.672283 11.93023 0 0 1 66.19113 36.444484 C 65.861226 36.408052 59.635596 36.393034 52.303283 36.410696 C 42.091338 36.435496 38.926892 36.475548 38.867222 36.572128 C 38.824322 36.641628 38.578709 36.743816 38.323609 36.801136 C 38.06852 36.858436 37.729088 37.004131 37.566959 37.124 C 37.404829 37.24386 37.198276 37.312624 37.107826 37.277924 C 37.017326 37.243324 36.942538 37.267783 36.942538 37.330483 C 36.942538 37.393183 36.678531 37.565779 36.358521 37.717169 C 36.038511 37.868569 35.778177 38.038633 35.778177 38.092593 C 35.778177 38.146593 35.722173 38.190203 35.653293 38.190203 C 35.584293 38.190203 35.143625 38.584279 34.672586 39.064939 C 34.201556 39.545619 33.752153 40.091491 33.673513 40.281311 C 33.594913 40.47114 33.474152 40.663289 33.409052 40.705539 C 33.343953 40.747739 33.215454 40.948653 33.122554 41.152293 C 33.029554 41.355932 32.87217 41.758645 32.76994 42.049554 C 32.66772 42.340474 32.486586 43.008827 32.369576 43.532476 C 32.182896 44.367926 32.17009 44.606563 32.26673 45.488432 C 32.32733 46.041171 32.447551 46.781043 32.531191 47.132786 C 32.614791 47.484525 32.748049 47.890977 32.828709 48.033802 C 32.909409 48.17662 33.002873 48.31631 33.038073 48.345403 C 33.073273 48.374493 33.161626 48.577722 33.232745 48.795911 C 33.303945 49.0141 33.39765 49.190106 33.44211 49.190106 C 33.48661 49.190106 33.581745 49.381595 33.651475 49.614334 C 33.721174 49.847066 33.823354 50.038563 33.879204 50.038563 C 33.935104 50.038563 33.978377 50.093978 33.978377 50.162452 C 33.978377 50.230922 34.134545 50.42436 34.323645 50.590435 C 34.512745 50.756529 34.847414 51.013475 35.065603 51.164833 C 35.283793 51.316189 35.462294 51.50576 35.462294 51.585307 C 35.462294 51.664817 35.531883 51.731722 35.616563 51.731722 C 35.701163 51.731722 35.890855 51.850161 36.038965 51.998272 C 36.187065 52.14637 36.307098 52.337867 36.307098 52.422501 C 36.307098 52.507101 36.380666 52.576424 36.472386 52.576424 C 36.564186 52.576424 36.771349 52.709244 36.931519 52.869254 C 37.091679 53.029252 37.49285 53.363821 37.8204 53.616347 C 38.147939 53.868866 38.524558 54.213426 38.657858 54.38221 C 38.791138 54.550989 38.93664 54.689533 38.98476 54.690058 C 39.03286 54.690462 39.22325 54.840198 39.403489 55.02043 C 39.583719 55.200669 39.911859 55.461817 40.134429 55.602336 C 40.356999 55.742832 40.538466 55.918776 40.538466 55.992776 C 40.538466 56.066816 40.683462 56.212529 40.858022 56.315641 C 41.032562 56.418751 41.173905 56.54964 41.173905 56.604716 C 41.173905 56.659746 41.363578 56.78546 41.596307 56.886284 C 41.829047 56.987109 42.01871 57.125489 42.01871 57.194131 C 42.01871 57.262801 42.218437 57.500383 42.459477 57.723478 C 42.700527 57.94658 43.02507 58.261755 43.18307 58.421765 C 43.34107 58.581764 43.496978 58.710841 43.528338 58.710841 C 43.559638 58.710841 43.740825 58.843661 43.932375 59.003671 C 44.123915 59.163681 44.41816 59.425579 44.58618 59.585578 C 44.75419 59.745588 44.925345 59.8774 44.964505 59.878408 C 45.003705 59.879608 45.414258 60.258648 45.879098 60.72311 C 46.343947 61.187573 46.763895 61.567813 46.812055 61.567813 C 46.860255 61.567813 47.053154 61.724117 47.241804 61.913202 C 47.430453 62.102305 47.78076 62.434597 48.01682 62.652786 C 48.252879 62.870982 48.496523 63.050735 48.560433 63.050735 C 48.624333 63.050735 48.731082 63.1525 48.799182 63.279743 C 48.867282 63.406999 49.00275 63.592778 49.0967 63.688955 C 49.1906 63.785124 49.352983 63.894281 49.460333 63.93298 C 49.567683 63.97166 49.679388 64.088615 49.706428 64.192022 C 49.733528 64.295429 49.895868 64.439406 50.066388 64.514886 C 50.236918 64.590366 50.450596 64.779978 50.543886 64.93536 C 50.637086 65.090725 50.900623 65.350308 51.127903 65.509758 C 51.355184 65.669212 51.539286 65.868685 51.539286 65.956511 C 51.539286 66.044381 51.606066 66.117943 51.686208 66.117943 C 51.766398 66.117943 51.895242 66.193532 51.972707 66.286884 C 52.050197 66.380224 52.221404 66.499002 52.354706 66.54968 C 52.488021 66.60037 52.597128 66.712501 52.597128 66.801214 C 52.597128 66.889954 52.681894 66.962646 52.784454 66.962646 C 52.887022 66.962646 53.01719 67.069263 53.074626 67.195408 C 53.132076 67.321566 53.272923 67.47411 53.386836 67.537044 C 53.500743 67.599943 53.65692 67.708751 53.732104 67.777314 C 53.807294 67.845874 53.869846 67.939753 53.87168 67.987552 C 53.87348 68.035401 53.991635 68.206731 54.132468 68.366729 C 54.273289 68.52674 54.48737 68.655805 54.609966 68.655805 C 54.744554 68.655805 54.803804 68.702238 54.760561 68.772186 C 54.721221 68.835956 54.754243 69.015676 54.834023 69.170135 C 54.913632 69.324582 55.111113 69.566876 55.271117 69.710745 C 55.431122 69.854618 55.561289 70.02909 55.561289 70.097431 C 55.561289 70.165811 55.702738 70.50797 55.877172 70.85954 C 56.051593 71.211104 56.241268 71.529304 56.299574 71.565336 C 56.357864 71.601366 56.406093 71.749148 56.406093 71.891954 C 56.406093 72.034779 56.449543 72.233918 56.501593 72.334954 C 56.553553 72.435988 56.716103 72.898139 56.861553 73.363613 C 57.007015 73.829081 57.199426 74.49744 57.291301 74.846536 C 57.383211 75.195643 57.556525 75.860227 57.673299 76.325703 C 57.790084 76.791174 58.003937 77.600339 58.150797 78.123981 C 58.297659 78.647631 58.488536 79.362926 58.5732 79.712022 C 58.657899 80.061123 58.821826 80.702259 58.940506 81.13863 C 59.059175 81.575015 59.209294 82.122264 59.271081 82.355002 C 59.332831 82.587729 59.447962 83.017666 59.528196 83.308577 C 59.608476 83.5995 59.739537 84.07636 59.822041 84.367271 C 59.904541 84.658194 60.035081 85.181982 60.108539 85.531083 C 60.181999 85.880184 60.307403 86.316336 60.387692 86.499675 C 60.467972 86.683027 60.534615 86.968718 60.534615 87.137895 C 60.534615 87.307072 60.603483 87.539289 60.688883 87.652225 C 60.774353 87.765172 60.844973 88.013135 60.846825 88.204097 C 60.848625 88.39507 60.913832 88.703895 60.990074 88.891122 C 61.066324 89.078354 61.190658 89.518122 61.269227 89.867223 C 61.347777 90.21633 61.451811 90.547776 61.50063 90.603052 C 61.54945 90.658332 61.592456 90.859967 61.592456 91.049806 C 61.592456 91.239664 61.685432 91.636813 61.801821 91.932051 C 61.918197 92.227276 62.014859 92.580028 62.014859 92.716686 C 62.014859 92.853336 62.085835 93.101898 62.1728 93.268558 C 62.25971 93.435213 62.330374 93.6644 62.330742 93.779134 C 62.331098 93.893855 62.424132 94.296566 62.536433 94.676395 C 62.648765 95.05623 62.845886 95.773628 62.973528 96.26819 C 63.10117 96.762754 63.240413 97.263074 63.285738 97.379443 C 63.331058 97.495807 63.444476 97.898505 63.535506 98.276705 C 63.626546 98.654893 63.893573 99.67901 64.130542 100.55177 C 64.367504 101.42453 64.602127 102.30409 64.652117 102.50773 C 64.702147 102.71139 64.835162 103.12344 64.945962 103.42376 C 65.056773 103.72409 65.198343 104.03666 65.261845 104.11454 C 65.325325 104.19244 65.454097 104.42147 65.548344 104.62511 C 65.642554 104.82875 65.826964 105.18452 65.956054 105.41726 C 66.085138 105.65 66.320356 105.97379 66.481302 106.13431 C 66.642224 106.29481 66.775147 106.45273 66.775147 106.48721 C 66.775147 106.52171 67.001983 106.79155 67.278356 107.08414 C 67.55473 107.37674 68.121843 107.88752 68.538216 108.22167 C 68.954572 108.55584 69.769297 109.06954 70.349036 109.36296 C 70.928775 109.65639 71.633492 109.97706 71.917433 110.07626 C 72.201368 110.17546 72.862997 110.34429 73.386658 110.45168 C 74.009412 110.5794 74.795347 110.64956 75.660284 110.65066 C 76.420877 110.65166 77.298606 110.58592 77.724544 110.49673 C 78.131824 110.41143 78.868178 110.21218 79.36273 110.05373 C 79.857292 109.89527 80.27996 109.7283 80.299361 109.68207 C 80.318791 109.63587 80.416857 109.59572 80.519744 109.59572 C 80.622644 109.59572 81.036644 109.38605 81.43801 109.12644 C 81.839376 108.86683 82.223555 108.60492 82.293833 108.54453 C 82.364133 108.48413 82.446945 108.43191 82.477486 108.43191 C 82.508016 108.43191 82.679204 108.30285 82.859485 108.14283 C 83.039772 107.98282 83.385004 107.66694 83.623482 107.44079 C 83.861958 107.21464 84.30977 106.71432 84.618881 106.32954 C 84.927992 105.94477 85.228772 105.57387 85.287379 105.5036 C 85.345969 105.4333 85.393898 105.30049 85.393898 105.21077 C 85.393898 105.12107 85.434111 105.04934 85.482051 105.04934 C 85.529901 105.04934 85.719598 104.72627 85.904453 104.33228 C 86.089314 103.93829 86.238702 103.55531 86.238702 103.48383 C 86.238702 103.41243 86.282541 103.35618 86.334201 103.35618 C 86.385851 103.35618 86.457738 103.17642 86.495816 102.95823 C 86.533836 102.74004 86.631912 102.34908 86.712527 102.08725 C 86.793107 101.82543 86.986887 101.11015 87.142275 100.49921 C 87.297687 99.888276 87.462041 99.312286 87.509581 99.219017 C 87.557071 99.125778 87.629914 98.816929 87.671196 98.531993 C 87.712536 98.247074 87.782898 97.966969 87.825465 97.90879 C 87.868004 97.85056 88.059329 97.158795 88.25154 96.373309 C 88.443756 95.587829 88.639827 94.928541 88.688634 94.909158 C 88.737454 94.889728 88.776788 94.673291 88.776788 94.428616 C 88.776788 94.183936 88.873513 93.797144 88.989825 93.568896 C 89.106194 93.340648 89.202863 92.97465 89.202863 92.754228 C 89.202863 92.533794 89.23828 92.352525 89.28367 92.352525 C 89.32923 92.352525 89.422156 92.153035 89.489362 91.905771 C 89.556582 91.658478 89.641289 91.275504 89.676688 91.057314 C 89.712048 90.839126 89.786435 90.659366 89.841976 90.659366 C 89.897495 90.659366 89.941148 90.545098 89.941148 90.404078 C 89.941148 90.263051 89.999872 89.895563 90.069705 89.585655 C 90.139525 89.275748 90.227248 88.999065 90.264378 88.969961 C 90.301548 88.940871 90.386266 88.678977 90.451704 88.388055 C 90.517194 88.097137 90.64109 87.57335 90.727183 87.224242 C 90.813323 86.875141 90.989956 86.183324 91.123874 85.688761 C 91.257804 85.194192 91.406749 84.773346 91.450777 84.753957 C 91.494707 84.734527 91.527911 84.558522 91.527911 84.363517 C 91.527911 84.168512 91.580841 83.877834 91.645449 83.714034 C 91.710079 83.55024 91.823773 83.175272 91.89889 82.884349 C 91.97399 82.593426 92.164896 81.881896 92.321292 81.300062 C 92.477694 80.718228 92.674206 79.979477 92.758387 79.659463 C 92.842607 79.339453 92.978028 78.815647 93.059578 78.49565 C 93.141108 78.175624 93.312488 77.557979 93.437903 77.121601 C 93.563318 76.685228 93.727557 76.063806 93.805209 75.743797 C 93.882909 75.423782 94.06414 74.733917 94.209246 74.208316 C 94.354351 73.682733 94.531413 73.112002 94.602264 72.939385 C 94.673134 72.766762 94.798643 72.473237 94.877743 72.289903 C 94.956873 72.106557 95.020993 71.905498 95.020993 71.843149 C 95.020993 71.780829 95.145345 71.467792 95.296472 71.148616 C 95.447594 70.829439 95.637265 70.514305 95.718875 70.446574 C 95.800504 70.378864 95.865797 70.268934 95.865797 70.202549 C 95.865797 70.136189 96.040465 69.819738 96.255142 69.500507 C 96.469812 69.181277 97.109628 68.468969 97.676617 67.916221 C 98.243599 67.36348 98.904638 66.734087 99.142168 66.515892 C 99.379704 66.297703 99.617555 66.117943 99.674762 66.117943 C 99.731972 66.117943 99.781281 66.047499 99.781281 65.960266 C 99.781281 65.872966 99.832132 65.798834 99.895146 65.798834 C 99.958136 65.798834 100.16075 65.646295 100.34693 65.457198 C 100.53311 65.268102 101.04059 64.802978 101.47456 64.424784 C 101.90851 64.046597 102.45149 63.56973 102.67933 63.36609 C 102.90718 63.162445 103.27218 62.830147 103.49107 62.626507 C 103.70997 62.422861 104.1866 61.996695 104.54892 61.676686 C 104.91126 61.356677 105.3304 60.974499 105.48187 60.828229 C 105.63333 60.681971 106.04391 60.322452 106.39279 60.032331 C 106.74166 59.742212 107.15242 59.385637 107.30738 59.240188 C 107.46234 59.094726 107.93713 58.668555 108.36155 58.290367 C 108.78596 57.912174 109.26788 57.482253 109.43409 57.336792 C 109.6003 57.19133 109.91832 56.90596 110.13932 56.702327 C 110.36032 56.498687 110.63873 56.260257 110.75639 56.17298 C 110.87405 56.08569 111.34906 55.659531 111.81423 55.223159 C 112.2794 54.786774 112.90451 54.238379 113.20265 54.006787 C 113.50078 53.775201 113.74626 53.550156 113.74626 53.507474 C 113.74626 53.464754 113.9036 53.321376 114.09888 53.188364 C 114.29416 53.055358 114.71157 52.733142 115.02449 52.471306 C 115.3374 52.209481 115.80856 51.803075 116.07131 51.566536 C 116.33405 51.329995 116.64755 51.044626 116.76919 50.93207 C 116.89085 50.819509 117.18033 50.46369 117.41198 50.143681 C 117.64363 49.823665 117.95675 49.323339 118.10619 49.032428 C 118.25561 48.741505 118.47564 48.25667 118.59838 47.954963 C 118.72112 47.653256 118.82243 47.241484 118.82243 47.03893 C 118.82243 46.83638 118.8794 46.649835 118.95099 46.625965 C 119.04559 46.594465 119.08175 46.179773 119.08322 45.109254 C 119.08522 43.989606 119.04091 43.47329 118.89222 42.95057 C 118.78457 42.572381 118.62293 42.048578 118.53226 41.786758 C 118.44156 41.524918 118.33564 41.286521 118.29719 41.257411 C 118.25879 41.228311 118.12196 40.989884 117.996 40.728064 C 117.87002 40.466235 117.62168 40.087002 117.44504 39.883362 C 117.26841 39.679702 117.02015 39.354449 116.8904 39.162549 C 116.76066 38.970649 116.20165 38.491146 115.64891 38.096347 C 115.09616 37.701567 114.45282 37.294897 114.22009 37.191577 C 113.98734 37.088257 113.65809 36.93837 113.48915 36.85745 C 113.3202 36.77645 113.0227 36.707281 112.828 36.707281 C 112.63329 36.707281 112.47538 36.670887 112.47538 36.624687 C 112.47538 36.578487 112.19346 36.476233 111.84729 36.399433 C 111.59338 36.343108 110.8047 36.313157 108.76926 36.298069 z M 39.638565 54.269583 C 39.667665 54.269583 39.693661 54.293063 39.693661 54.322143 C 39.693661 54.351233 39.667665 54.374702 39.638565 54.374702 C 39.609465 54.374702 39.587143 54.351223 39.587143 54.322143 C 39.587143 54.293053 39.609465 54.269583 39.638565 54.269583 z "
       transform="matrix(0.00738532,0,0,0.00722564,-0.72989282,1.1834337)" /><path
       style="display:none;mix-blend-mode:normal;fill:#006ae0;fill-opacity:1;stroke-width:0.399832"
       d="m 84.939488,36.402332 c -0.131799,0.0351 -0.389406,0.21366 -0.572469,0.39672 -0.183044,0.18304 -0.407884,0.33282 -0.499638,0.33282 -0.09171,0 -0.166818,0.0476 -0.166818,0.10579 0,0.0582 -0.05992,0.10579 -0.133235,0.10579 -0.07328,0 -0.1927,0.0952 -0.265374,0.21157 -0.0727,0.11637 -0.181324,0.21157 -0.241446,0.21157 -0.0601,0 -0.211509,0.0953 -0.336423,0.21159 -0.124896,0.11637 -0.301423,0.21201 -0.392273,0.21255 -0.09084,3.9e-4 -0.403213,0.11805 -0.694136,0.26116 -0.290911,0.14311 -0.603142,0.26169 -0.693846,0.2635 -0.09066,0.002 -0.257318,0.0732 -0.370265,0.15863 -0.112942,0.0854 -0.296807,0.15683 -0.408602,0.15868 -0.111783,0.002 -0.282934,0.0755 -0.380336,0.16365 -0.09742,0.0882 -0.577218,0.21707 -1.066224,0.28649 -0.489011,0.0694 -0.921082,0.17258 -0.960149,0.22925 -0.04158,0.0602 -0.901946,0.106 -2.072832,0.1102 -1.464337,0.005 -2.045007,-0.0286 -2.162794,-0.12624 -0.08854,-0.0734 -0.560134,-0.1832 -1.047939,-0.24403 -0.487811,-0.0608 -0.992367,-0.17931 -1.121234,-0.26328 -0.128867,-0.0839 -0.306238,-0.15267 -0.394167,-0.15267 -0.08786,0 -0.315707,-0.0951 -0.506216,-0.21119 -0.190503,-0.11614 -0.417774,-0.21241 -0.505045,-0.21392 -0.08729,-0.002 -0.27769,-0.0958 -0.423157,-0.20962 -0.145456,-0.11378 -0.339326,-0.20793 -0.430821,-0.20923 -0.09151,-0.001 -0.448514,-0.15405 -0.793398,-0.33948 -0.344896,-0.18542 -0.786554,-0.49484 -0.981469,-0.68762 -0.194926,-0.19278 -0.397245,-0.3505 -0.449612,-0.3505 -0.05238,0 -0.09517,-0.068 -0.09517,-0.15108 0,-0.10327 -0.175719,-0.17211 -0.555385,-0.21756 -0.305472,-0.0366 -6.567254,-0.0518 -13.915088,-0.0341 -10.211955,0.0248 -13.378095,0.0622 -13.437765,0.15878 -0.0429,0.0695 -0.28677,0.17323 -0.54187,0.23055 -0.25509,0.0573 -0.59646,0.20229 -0.75859,0.32216 -0.16213,0.11986 -0.36879,0.18953 -0.45924,0.15483 -0.0905,-0.0346 -0.16445,-0.0118 -0.16445,0.0509 0,0.0627 -0.26184,0.23787 -0.58185,0.38926 -0.32001,0.1514 -0.58183,0.3194 -0.58183,0.37336 0,0.054 -0.0564,0.0981 -0.12528,0.0981 -0.069,0 -0.51066,0.39327 -0.9817,0.87393 -0.47103,0.48068 -0.92074,1.02926 -0.99938,1.21908 -0.0786,0.18983 -0.19622,0.37972 -0.26132,0.42197 -0.0651,0.0422 -0.19438,0.24346 -0.28728,0.4471 -0.093,0.20364 -0.25257,0.60829 -0.3548,0.8992 -0.10222,0.29092 -0.28159,0.95739 -0.3986,1.48104 -0.18668,0.83545 -0.19925,1.07523 -0.10261,1.9571 0.0606,0.55274 0.17856,1.29278 0.2622,1.644523 0.0836,0.351739 0.21806,0.756382 0.29872,0.899207 0.0807,0.142818 0.17545,0.28347 0.21065,0.312563 0.0352,0.02909 0.12222,0.23141 0.19334,0.4496 0.0712,0.218189 0.16571,0.396702 0.21017,0.396702 0.0445,0 0.13788,0.190424 0.20761,0.423163 0.0697,0.232732 0.17248,0.423151 0.22833,0.423151 0.0559,0 0.10153,0.05606 0.10153,0.124534 0,0.06847 0.15472,0.260413 0.34382,0.426488 0.1891,0.166094 0.52233,0.425806 0.74052,0.577164 0.21819,0.151357 0.3967,0.340261 0.3967,0.419808 0,0.07951 0.0692,0.144622 0.15388,0.144622 0.0846,0 0.27505,0.121179 0.42316,0.26929 0.1481,0.148098 0.26927,0.338517 0.26927,0.423151 0,0.0846 0.0751,0.153874 0.16682,0.153874 0.0918,0 0.29788,0.130912 0.45805,0.290923 0.16016,0.159998 0.5592,0.497526 0.88675,0.750052 0.32754,0.252519 0.70457,0.597222 0.83787,0.766007 0.13328,0.168779 0.2817,0.307301 0.32982,0.307826 0.0481,4.04e-4 0.23494,0.14843 0.41518,0.328662 0.18023,0.180239 0.50981,0.442655 0.73238,0.583174 0.22257,0.140496 0.40468,0.316003 0.40468,0.390004 0,0.07404 0.14282,0.218907 0.31738,0.322019 0.17454,0.103111 0.31736,0.232527 0.31736,0.287604 0,0.05503 0.19042,0.182616 0.42315,0.28344 0.23274,0.100825 0.42315,0.239486 0.42315,0.308128 0,0.06867 0.19723,0.307337 0.43827,0.530432 0.24105,0.223102 0.56753,0.536546 0.72553,0.696556 0.158,0.159999 0.31291,0.290912 0.34427,0.290912 0.0313,0 0.21373,0.130912 0.40528,0.290923 0.19154,0.16001 0.48573,0.421835 0.65375,0.581834 0.16801,0.160011 0.33752,0.29175 0.37668,0.292758 0.0392,0.0012 0.45154,0.381839 0.91638,0.846302 0.46485,0.464463 0.8846,0.844486 0.93276,0.844486 0.0482,0 0.24192,0.154718 0.43057,0.343803 0.18865,0.189103 0.53614,0.522334 0.7722,0.740523 0.23606,0.218196 0.48148,0.396714 0.54539,0.396714 0.0639,0 0.17189,0.104108 0.23999,0.231351 0.0681,0.127256 0.20069,0.310053 0.29464,0.40623 0.0939,0.09617 0.25865,0.206519 0.366,0.245218 0.10735,0.03868 0.2173,0.154972 0.24434,0.258379 0.0271,0.103407 0.18869,0.249774 0.35921,0.325254 0.17053,0.07548 0.38637,0.264359 0.47966,0.419741 0.0932,0.155365 0.35556,0.412953 0.58284,0.572403 0.227281,0.159455 0.413228,0.36178 0.413228,0.449606 0,0.08787 0.06559,0.159685 0.145733,0.159685 0.08019,0 0.209108,0.07635 0.286573,0.169702 0.07749,0.09334 0.249906,0.211177 0.383208,0.261855 0.133315,0.05069 0.242376,0.164742 0.242376,0.253455 0,0.08874 0.08393,0.161302 0.18649,0.161302 0.102568,0 0.233481,0.10322 0.290917,0.229365 0.05745,0.126158 0.19763,0.280882 0.311543,0.343816 0.113907,0.0629 0.268626,0.170559 0.34381,0.239123 0.07519,0.06856 0.138208,0.163782 0.140042,0.211581 0.0018,0.04785 0.118572,0.217816 0.259405,0.377814 0.140821,0.160011 0.35635,0.290924 0.478946,0.290924 0.134588,0 0.194522,0.04592 0.151279,0.115868 -0.03934,0.06377 -0.0067,0.242255 0.07308,0.396714 0.07961,0.154447 0.275626,0.398542 0.43563,0.542411 0.160005,0.143874 0.290918,0.317511 0.290918,0.385852 0,0.06838 0.142715,0.411908 0.317149,0.763478 0.174421,0.351564 0.364845,0.668695 0.423151,0.704727 0.05829,0.03603 0.106008,0.182369 0.106008,0.325175 0,0.142825 0.04254,0.342331 0.09459,0.443367 0.05196,0.101035 0.21356,0.564527 0.35901,1.030002 0.145462,0.465468 0.33964,1.131948 0.431515,1.481044 0.09191,0.349108 0.262603,1.015564 0.379377,1.481041 0.116785,0.465471 0.332501,1.274764 0.479362,1.798407 0.146862,0.52365 0.336297,1.237736 0.420961,1.586832 0.0847,0.349102 0.251017,0.99177 0.369697,1.428142 0.118669,0.436385 0.266327,0.983841 0.328114,1.216579 0.06175,0.232727 0.178,0.661176 0.258234,0.952087 0.08028,0.290923 0.213374,0.766985 0.295878,1.057896 0.0825,0.290923 0.210091,0.814579 0.283549,1.163681 0.07346,0.349101 0.199241,0.784738 0.27953,0.968078 0.08028,0.183352 0.145986,0.471789 0.145986,0.640966 0,0.169177 0.06991,0.400015 0.15531,0.512951 0.08547,0.112947 0.156831,0.361599 0.158683,0.552561 0.0018,0.190973 0.06578,0.500404 0.142022,0.687631 0.07625,0.187232 0.202947,0.626043 0.281516,0.975144 0.07855,0.349108 0.182773,0.679962 0.231592,0.735238 0.04882,0.05528 0.08873,0.255838 0.08873,0.445677 0,0.189858 0.09518,0.586735 0.211569,0.881973 0.116376,0.295225 0.211588,0.648575 0.211588,0.785233 0,0.136651 0.07106,0.38482 0.158025,0.55148 0.08691,0.166655 0.158322,0.396871 0.15869,0.511605 3.56e-4,0.114722 0.09257,0.519365 0.204871,0.899195 0.112332,0.379835 0.308676,1.095255 0.436318,1.589818 0.127642,0.494564 0.269163,0.994413 0.314488,1.110782 0.04532,0.116364 0.156879,0.521007 0.247909,0.899207 0.09104,0.378188 0.359379,1.401699 0.596348,2.27446 0.236962,0.87276 0.471746,1.75344 0.521736,1.95708 0.05003,0.20366 0.181572,0.61599 0.292372,0.91631 0.110811,0.30033 0.25343,0.60975 0.316932,0.68763 0.06348,0.0779 0.192566,0.3082 0.286813,0.51184 0.09421,0.20364 0.276978,0.56068 0.406068,0.79342 0.129084,0.23274 0.366372,0.55447 0.527318,0.715 0.160922,0.1605 0.292595,0.32003 0.292595,0.35451 0,0.0345 0.226125,0.30208 0.502499,0.59467 0.276374,0.2926 0.843158,0.80541 1.259532,1.13956 0.416356,0.33417 1.231364,0.84764 1.811104,1.14106 0.57974,0.29343 1.286379,0.61465 1.570321,0.71385 0.283935,0.0992 0.944688,0.26822 1.46835,0.37561 0.622754,0.12772 1.409514,0.19583 2.274451,0.19693 0.760594,0.001 1.636942,-0.0641 2.062881,-0.15329 0.40728,-0.0853 1.145166,-0.28461 1.639718,-0.44306 0.494563,-0.15846 0.915071,-0.32592 0.934472,-0.37215 0.01943,-0.0462 0.119447,-0.084 0.222335,-0.084 0.1029,0 0.515473,-0.21241 0.916839,-0.47202 0.401367,-0.25961 0.787255,-0.52144 0.857533,-0.58183 0.0703,-0.0604 0.152763,-0.10982 0.183304,-0.10982 0.03053,0 0.20303,-0.13091 0.383311,-0.29093 0.180287,-0.16001 0.522913,-0.47595 0.761391,-0.7021 0.238477,-0.22615 0.68652,-0.726 0.995632,-1.11079 0.309111,-0.38477 0.609973,-0.75709 0.66858,-0.82736 0.05859,-0.0703 0.106569,-0.20119 0.106569,-0.29091 0,-0.0897 0.03916,-0.16316 0.0871,-0.16316 0.04785,0 0.23829,-0.32237 0.423145,-0.71636 0.184861,-0.39399 0.336097,-0.77483 0.336097,-0.84631 0,-0.0714 0.04236,-0.12995 0.09402,-0.12995 0.05165,0 0.125161,-0.17851 0.163239,-0.3967 0.03802,-0.21819 0.135191,-0.61093 0.215806,-0.87276 0.08058,-0.26182 0.273737,-0.97589 0.429125,-1.58683 0.155412,-0.610936 0.321458,-1.187098 0.368998,-1.280367 0.04749,-0.09324 0.120219,-0.402694 0.161501,-0.687631 0.04134,-0.284919 0.10987,-0.56565 0.152437,-0.623829 0.04254,-0.05823 0.234652,-0.748452 0.426863,-1.533939 0.192216,-0.78548 0.389412,-1.444019 0.438219,-1.463402 0.04882,-0.01943 0.08873,-0.235454 0.08873,-0.480129 0,-0.24468 0.09527,-0.631619 0.211582,-0.859867 0.116369,-0.228249 0.211581,-0.595358 0.211581,-0.81578 0,-0.220434 0.03729,-0.400793 0.08268,-0.400793 0.04556,0 0.137683,-0.202325 0.204889,-0.449589 0.06722,-0.247293 0.151176,-0.628124 0.186575,-0.846314 0.03536,-0.218189 0.109822,-0.396714 0.165363,-0.396714 0.05552,0 0.101006,-0.115373 0.101006,-0.256393 0,-0.141027 0.05703,-0.509958 0.126863,-0.819866 0.06982,-0.309907 0.157247,-0.587259 0.194377,-0.616363 0.03717,-0.02909 0.121034,-0.290911 0.186472,-0.581834 0.06549,-0.290918 0.189423,-0.814567 0.275517,-1.163675 0.08614,-0.349102 0.266109,-1.039364 0.400027,-1.533927 0.13393,-0.49457 0.279512,-0.915077 0.32354,-0.934466 0.04393,-0.01943 0.07999,-0.194824 0.07999,-0.389829 0,-0.195005 0.05292,-0.488565 0.117528,-0.652365 0.06463,-0.163795 0.178977,-0.535828 0.254094,-0.826751 0.0751,-0.290923 0.264535,-1.004997 0.420931,-1.586831 0.156402,-0.581835 0.353241,-1.319709 0.437422,-1.639724 0.08422,-0.32001 0.219801,-0.843672 0.301351,-1.163669 0.08153,-0.320027 0.250903,-0.938883 0.376318,-1.375262 0.125415,-0.436373 0.291574,-1.055241 0.369226,-1.37525 0.0777,-0.320016 0.259924,-1.011859 0.40503,-1.537461 0.145105,-0.525583 0.321808,-1.096846 0.392659,-1.269463 0.07087,-0.172623 0.193556,-0.46386 0.272656,-0.647194 0.07913,-0.183346 0.143821,-0.384373 0.143821,-0.446722 0,-0.06232 0.12364,-0.374495 0.274768,-0.693671 0.151122,-0.319177 0.341541,-0.635741 0.423151,-0.703472 0.08163,-0.06771 0.148389,-0.177463 0.148389,-0.243848 0,-0.06636 0.175634,-0.381887 0.390311,-0.701118 0.214671,-0.319231 0.854214,-1.032672 1.421203,-1.58542 0.566983,-0.552742 1.225232,-1.18351 1.462762,-1.401705 0.237536,-0.218189 0.478687,-0.396708 0.535894,-0.396708 0.05721,0 0.10401,-0.07145 0.10401,-0.158683 0,-0.0873 0.0516,-0.158677 0.114614,-0.158677 0.06299,0 0.266924,-0.154719 0.453104,-0.343816 0.18618,-0.189097 0.69355,-0.653246 1.12752,-1.03144 0.43395,-0.378188 0.97541,-0.854244 1.20325,-1.057884 0.22785,-0.203646 0.59336,-0.536877 0.81225,-0.740518 0.2189,-0.203646 0.69444,-0.632089 1.05676,-0.952099 0.36234,-0.320009 0.78271,-0.701504 0.93418,-0.847774 0.15146,-0.146258 0.56083,-0.503289 0.90971,-0.79341 0.34887,-0.29012 0.7611,-0.646506 0.91607,-0.791955 0.15496,-0.145462 0.62899,-0.573917 1.05341,-0.952105 0.42441,-0.378194 0.90766,-0.806638 1.07387,-0.952099 0.16621,-0.145462 0.48303,-0.431093 0.70403,-0.634727 0.221,-0.20364 0.4981,-0.441677 0.61576,-0.528954 0.11766,-0.08729 0.59452,-0.515714 1.05969,-0.952087 0.46517,-0.436385 1.08969,-0.982899 1.38783,-1.214491 0.29813,-0.231586 0.54206,-0.455997 0.54206,-0.498679 0,-0.04272 0.15977,-0.186442 0.35505,-0.319454 0.19528,-0.133006 0.61107,-0.456051 0.92399,-0.717888 0.31291,-0.261825 0.7839,-0.669582 1.04665,-0.906122 0.26274,-0.236541 0.57724,-0.522171 0.69888,-0.634727 0.12166,-0.112561 0.41073,-0.466491 0.64238,-0.7865 0.23165,-0.320016 0.54344,-0.819865 0.69288,-1.110776 0.14942,-0.290923 0.37211,-0.775795 0.49485,-1.077502 0.12274,-0.301707 0.22318,-0.714286 0.22318,-0.91684 0,-0.20255 0.0586,-0.38781 0.13019,-0.41168 0.0946,-0.0315 0.13077,-0.44579 0.13224,-1.51631 0.002,-1.11965 -0.045,-1.63781 -0.19369,-2.16053 -0.10765,-0.37819 -0.26989,-0.90184 -0.36056,-1.16366 -0.0907,-0.26184 -0.19628,-0.49985 -0.23473,-0.52896 -0.0384,-0.0291 -0.17296,-0.26711 -0.29893,-0.52893 -0.12598,-0.26183 -0.37358,-0.64267 -0.55022,-0.84631 -0.17663,-0.20366 -0.42732,-0.52727 -0.55707,-0.71917 -0.12974,-0.1919 -0.68815,-0.67191 -1.24089,-1.06671 -0.55275,-0.39478 -1.19542,-0.80232 -1.42815,-0.90564 -0.23275,-0.10332 -0.56139,-0.25407 -0.73033,-0.33499 -0.16895,-0.081 -0.46648,-0.14716 -0.66118,-0.14716 -0.19471,0 -0.35401,-0.0377 -0.35401,-0.0839 0,-0.0462 -0.28321,-0.14679 -0.62938,-0.22359 -0.50782,-0.11265 -3.14332,-0.13219 -13.647974,-0.10116 -7.160246,0.0211 -13.126457,0.0672 -13.258245,0.10235 z M 39.692462,54.322537 c 0,0.02909 -0.0238,0.05292 -0.0529,0.05292 -0.0291,0 -0.0529,-0.02384 -0.0529,-0.05292 0,-0.02909 0.0238,-0.05292 0.0529,-0.05292 0.0291,0 0.0529,0.02384 0.0529,0.05292 z"
       id="path1-65-3"
       sodipodi:nodetypes="ssssscsccssccsscccccsccscssssscccccsssscccccscscccsssscssssssssscscsssssssssccsscsscsccscssscsssscsccsccssssscscsscsccssssccscsssscscsssscsccsssscsssccscssssssscsssssccccccscscssscssscccscscssccscsscsscsssssssssssssssssssssssssssssscccssssssscssscsssssss"
       inkscape:path-effect="#path-effect9-4-1"
       inkscape:original-d="m 84.939488,36.402332 c -0.131799,0.0351 -0.389406,0.21366 -0.572469,0.39672 -0.183044,0.18304 -0.407884,0.33282 -0.499638,0.33282 -0.09171,0 -0.166818,0.0476 -0.166818,0.10579 0,0.0582 -0.05992,0.10579 -0.133235,0.10579 -0.07328,0 -0.1927,0.0952 -0.265374,0.21157 -0.0727,0.11637 -0.181324,0.21157 -0.241446,0.21157 -0.0601,0 -0.211509,0.0953 -0.336423,0.21159 -0.124896,0.11637 -0.301423,0.21201 -0.392273,0.21255 -0.09084,3.9e-4 -0.403213,0.11805 -0.694136,0.26116 -0.290911,0.14311 -0.603142,0.26169 -0.693846,0.2635 -0.09066,0.002 -0.257318,0.0732 -0.370265,0.15863 -0.112942,0.0854 -0.296807,0.15683 -0.408602,0.15868 -0.111783,0.002 -0.282934,0.0755 -0.380336,0.16365 -0.09742,0.0882 -0.577218,0.21707 -1.066224,0.28649 -0.489011,0.0694 -0.921082,0.17258 -0.960149,0.22925 -0.04158,0.0602 -0.901946,0.106 -2.072832,0.1102 -1.464337,0.005 -2.045007,-0.0286 -2.162794,-0.12624 -0.08854,-0.0734 -0.560134,-0.1832 -1.047939,-0.24403 -0.487811,-0.0608 -0.992367,-0.17931 -1.121234,-0.26328 -0.128867,-0.0839 -0.306238,-0.15267 -0.394167,-0.15267 -0.08786,0 -0.315707,-0.0951 -0.506216,-0.21119 -0.190503,-0.11614 -0.417774,-0.21241 -0.505045,-0.21392 -0.08729,-0.002 -0.27769,-0.0958 -0.423157,-0.20962 -0.145456,-0.11378 -0.339326,-0.20793 -0.430821,-0.20923 -0.09151,-0.001 -0.448514,-0.15405 -0.793398,-0.33948 -0.344896,-0.18542 -0.786554,-0.49484 -0.981469,-0.68762 -0.194926,-0.19278 -0.397245,-0.3505 -0.449612,-0.3505 -0.05238,0 -0.09517,-0.068 -0.09517,-0.15108 0,-0.10327 -0.175719,-0.17211 -0.555385,-0.21756 -0.305472,-0.0366 -6.567254,-0.0518 -13.915088,-0.0341 -10.211955,0.0248 -13.378095,0.0622 -13.437765,0.15878 -0.0429,0.0695 -0.28677,0.17323 -0.54187,0.23055 -0.25509,0.0573 -0.59646,0.20229 -0.75859,0.32216 -0.16213,0.11986 -0.36879,0.18953 -0.45924,0.15483 -0.0905,-0.0346 -0.16445,-0.0118 -0.16445,0.0509 0,0.0627 -0.26184,0.23787 -0.58185,0.38926 -0.32001,0.1514 -0.58183,0.3194 -0.58183,0.37336 0,0.054 -0.0564,0.0981 -0.12528,0.0981 -0.069,0 -0.51066,0.39327 -0.9817,0.87393 -0.47103,0.48068 -0.92074,1.02926 -0.99938,1.21908 -0.0786,0.18983 -0.19622,0.37972 -0.26132,0.42197 -0.0651,0.0422 -0.19438,0.24346 -0.28728,0.4471 -0.093,0.20364 -0.25257,0.60829 -0.3548,0.8992 -0.10222,0.29092 -0.28159,0.95739 -0.3986,1.48104 -0.18668,0.83545 -0.19925,1.07523 -0.10261,1.9571 0.0606,0.55274 0.17856,1.29278 0.2622,1.644523 0.0836,0.351739 0.21806,0.756382 0.29872,0.899207 0.0807,0.142818 0.17545,0.28347 0.21065,0.312563 0.0352,0.02909 0.12222,0.23141 0.19334,0.4496 0.0712,0.218189 0.16571,0.396702 0.21017,0.396702 0.0445,0 0.13788,0.190424 0.20761,0.423163 0.0697,0.232732 0.17248,0.423151 0.22833,0.423151 0.0559,0 0.10153,0.05606 0.10153,0.124534 0,0.06847 0.15472,0.260413 0.34382,0.426488 0.1891,0.166094 0.52233,0.425806 0.74052,0.577164 0.21819,0.151357 0.3967,0.340261 0.3967,0.419808 0,0.07951 0.0692,0.144622 0.15388,0.144622 0.0846,0 0.27505,0.121179 0.42316,0.26929 0.1481,0.148098 0.26927,0.338517 0.26927,0.423151 0,0.0846 0.0751,0.153874 0.16682,0.153874 0.0918,0 0.29788,0.130912 0.45805,0.290923 0.16016,0.159998 0.5592,0.497526 0.88675,0.750052 0.32754,0.252519 0.70457,0.597222 0.83787,0.766007 0.13328,0.168779 0.2817,0.307301 0.32982,0.307826 0.0481,4.04e-4 0.23494,0.14843 0.41518,0.328662 0.18023,0.180239 0.50981,0.442655 0.73238,0.583174 0.22257,0.140496 0.40468,0.316003 0.40468,0.390004 0,0.07404 0.14282,0.218907 0.31738,0.322019 0.17454,0.103111 0.31736,0.232527 0.31736,0.287604 0,0.05503 0.19042,0.182616 0.42315,0.28344 0.23274,0.100825 0.42315,0.239486 0.42315,0.308128 0,0.06867 0.19723,0.307337 0.43827,0.530432 0.24105,0.223102 0.56753,0.536546 0.72553,0.696556 0.158,0.159999 0.31291,0.290912 0.34427,0.290912 0.0313,0 0.21373,0.130912 0.40528,0.290923 0.19154,0.16001 0.48573,0.421835 0.65375,0.581834 0.16801,0.160011 0.33752,0.29175 0.37668,0.292758 0.0392,0.0012 0.45154,0.381839 0.91638,0.846302 0.46485,0.464463 0.8846,0.844486 0.93276,0.844486 0.0482,0 0.24192,0.154718 0.43057,0.343803 0.18865,0.189103 0.53614,0.522334 0.7722,0.740523 0.23606,0.218196 0.48148,0.396714 0.54539,0.396714 0.0639,0 0.17189,0.104108 0.23999,0.231351 0.0681,0.127256 0.20069,0.310053 0.29464,0.40623 0.0939,0.09617 0.25865,0.206519 0.366,0.245218 0.10735,0.03868 0.2173,0.154972 0.24434,0.258379 0.0271,0.103407 0.18869,0.249774 0.35921,0.325254 0.17053,0.07548 0.38637,0.264359 0.47966,0.419741 0.0932,0.155365 0.35556,0.412953 0.58284,0.572403 0.227281,0.159455 0.413228,0.36178 0.413228,0.449606 0,0.08787 0.06559,0.159685 0.145733,0.159685 0.08019,0 0.209108,0.07635 0.286573,0.169702 0.07749,0.09334 0.249906,0.211177 0.383208,0.261855 0.133315,0.05069 0.242376,0.164742 0.242376,0.253455 0,0.08874 0.08393,0.161302 0.18649,0.161302 0.102568,0 0.233481,0.10322 0.290917,0.229365 0.05745,0.126158 0.19763,0.280882 0.311543,0.343816 0.113907,0.0629 0.268626,0.170559 0.34381,0.239123 0.07519,0.06856 0.138208,0.163782 0.140042,0.211581 0.0018,0.04785 0.118572,0.217816 0.259405,0.377814 0.140821,0.160011 0.35635,0.290924 0.478946,0.290924 0.134588,0 0.194522,0.04592 0.151279,0.115868 -0.03934,0.06377 -0.0067,0.242255 0.07308,0.396714 0.07961,0.154447 0.275626,0.398542 0.43563,0.542411 0.160005,0.143874 0.290918,0.317511 0.290918,0.385852 0,0.06838 0.142715,0.411908 0.317149,0.763478 0.174421,0.351564 0.364845,0.668695 0.423151,0.704727 0.05829,0.03603 0.106008,0.182369 0.106008,0.325175 0,0.142825 0.04254,0.342331 0.09459,0.443367 0.05196,0.101035 0.21356,0.564527 0.35901,1.030002 0.145462,0.465468 0.33964,1.131948 0.431515,1.481044 0.09191,0.349108 0.262603,1.015564 0.379377,1.481041 0.116785,0.465471 0.332501,1.274764 0.479362,1.798407 0.146862,0.52365 0.336297,1.237736 0.420961,1.586832 0.0847,0.349102 0.251017,0.99177 0.369697,1.428142 0.118669,0.436385 0.266327,0.983841 0.328114,1.216579 0.06175,0.232727 0.178,0.661176 0.258234,0.952087 0.08028,0.290923 0.213374,0.766985 0.295878,1.057896 0.0825,0.290923 0.210091,0.814579 0.283549,1.163681 0.07346,0.349101 0.199241,0.784738 0.27953,0.968078 0.08028,0.183352 0.145986,0.471789 0.145986,0.640966 0,0.169177 0.06991,0.400015 0.15531,0.512951 0.08547,0.112947 0.156831,0.361599 0.158683,0.552561 0.0018,0.190973 0.06578,0.500404 0.142022,0.687631 0.07625,0.187232 0.202947,0.626043 0.281516,0.975144 0.07855,0.349108 0.182773,0.679962 0.231592,0.735238 0.04882,0.05528 0.08873,0.255838 0.08873,0.445677 0,0.189858 0.09518,0.586735 0.211569,0.881973 0.116376,0.295225 0.211588,0.648575 0.211588,0.785233 0,0.136651 0.07106,0.38482 0.158025,0.55148 0.08691,0.166655 0.158322,0.396871 0.15869,0.511605 3.56e-4,0.114722 0.09257,0.519365 0.204871,0.899195 0.112332,0.379835 0.308676,1.095255 0.436318,1.589818 0.127642,0.494564 0.269163,0.994413 0.314488,1.110782 0.04532,0.116364 0.156879,0.521007 0.247909,0.899207 0.09104,0.378188 0.359379,1.401699 0.596348,2.27446 0.236962,0.87276 0.471746,1.75344 0.521736,1.95708 0.05003,0.20366 0.181572,0.61599 0.292372,0.91631 0.110811,0.30033 0.25343,0.60975 0.316932,0.68763 0.06348,0.0779 0.192566,0.3082 0.286813,0.51184 0.09421,0.20364 0.276978,0.56068 0.406068,0.79342 0.129084,0.23274 0.366372,0.55447 0.527318,0.715 0.160922,0.1605 0.292595,0.32003 0.292595,0.35451 0,0.0345 0.226125,0.30208 0.502499,0.59467 0.276374,0.2926 0.843158,0.80541 1.259532,1.13956 0.416356,0.33417 1.231364,0.84764 1.811104,1.14106 0.57974,0.29343 1.286379,0.61465 1.570321,0.71385 0.283935,0.0992 0.944688,0.26822 1.46835,0.37561 0.622754,0.12772 1.409514,0.19583 2.274451,0.19693 0.760594,0.001 1.636942,-0.0641 2.062881,-0.15329 0.40728,-0.0853 1.145166,-0.28461 1.639718,-0.44306 0.494563,-0.15846 0.915071,-0.32592 0.934472,-0.37215 0.01943,-0.0462 0.119447,-0.084 0.222335,-0.084 0.1029,0 0.515473,-0.21241 0.916839,-0.47202 0.401367,-0.25961 0.787255,-0.52144 0.857533,-0.58183 0.0703,-0.0604 0.152763,-0.10982 0.183304,-0.10982 0.03053,0 0.20303,-0.13091 0.383311,-0.29093 0.180287,-0.16001 0.522913,-0.47595 0.761391,-0.7021 0.238477,-0.22615 0.68652,-0.726 0.995632,-1.11079 0.309111,-0.38477 0.609973,-0.75709 0.66858,-0.82736 0.05859,-0.0703 0.106569,-0.20119 0.106569,-0.29091 0,-0.0897 0.03916,-0.16316 0.0871,-0.16316 0.04785,0 0.23829,-0.32237 0.423145,-0.71636 0.184861,-0.39399 0.336097,-0.77483 0.336097,-0.84631 0,-0.0714 0.04236,-0.12995 0.09402,-0.12995 0.05165,0 0.125161,-0.17851 0.163239,-0.3967 0.03802,-0.21819 0.135191,-0.61093 0.215806,-0.87276 0.08058,-0.26182 0.273737,-0.97589 0.429125,-1.58683 0.155412,-0.610936 0.321458,-1.187098 0.368998,-1.280367 0.04749,-0.09324 0.120219,-0.402694 0.161501,-0.687631 0.04134,-0.284919 0.10987,-0.56565 0.152437,-0.623829 0.04254,-0.05823 0.234652,-0.748452 0.426863,-1.533939 0.192216,-0.78548 0.389412,-1.444019 0.438219,-1.463402 0.04882,-0.01943 0.08873,-0.235454 0.08873,-0.480129 0,-0.24468 0.09527,-0.631619 0.211582,-0.859867 0.116369,-0.228249 0.211581,-0.595358 0.211581,-0.81578 0,-0.220434 0.03729,-0.400793 0.08268,-0.400793 0.04556,0 0.137683,-0.202325 0.204889,-0.449589 0.06722,-0.247293 0.151176,-0.628124 0.186575,-0.846314 0.03536,-0.218189 0.109822,-0.396714 0.165363,-0.396714 0.05552,0 0.101006,-0.115373 0.101006,-0.256393 0,-0.141027 0.05703,-0.509958 0.126863,-0.819866 0.06982,-0.309907 0.157247,-0.587259 0.194377,-0.616363 0.03717,-0.02909 0.121034,-0.290911 0.186472,-0.581834 0.06549,-0.290918 0.189423,-0.814567 0.275517,-1.163675 0.08614,-0.349102 0.266109,-1.039364 0.400027,-1.533927 0.13393,-0.49457 0.279512,-0.915077 0.32354,-0.934466 0.04393,-0.01943 0.07999,-0.194824 0.07999,-0.389829 0,-0.195005 0.05292,-0.488565 0.117528,-0.652365 0.06463,-0.163795 0.178977,-0.535828 0.254094,-0.826751 0.0751,-0.290923 0.264535,-1.004997 0.420931,-1.586831 0.156402,-0.581835 0.353241,-1.319709 0.437422,-1.639724 0.08422,-0.32001 0.219801,-0.843672 0.301351,-1.163669 0.08153,-0.320027 0.250903,-0.938883 0.376318,-1.375262 0.125415,-0.436373 0.291574,-1.055241 0.369226,-1.37525 0.0777,-0.320016 0.259924,-1.011859 0.40503,-1.537461 0.145105,-0.525583 0.321808,-1.096846 0.392659,-1.269463 0.07087,-0.172623 0.193556,-0.46386 0.272656,-0.647194 0.07913,-0.183346 0.143821,-0.384373 0.143821,-0.446722 0,-0.06232 0.12364,-0.374495 0.274768,-0.693671 0.151122,-0.319177 0.341541,-0.635741 0.423151,-0.703472 0.08163,-0.06771 0.148389,-0.177463 0.148389,-0.243848 0,-0.06636 0.175634,-0.381887 0.390311,-0.701118 0.214671,-0.319231 0.854214,-1.032672 1.421203,-1.58542 0.566983,-0.552742 1.225232,-1.18351 1.462762,-1.401705 0.237536,-0.218189 0.478687,-0.396708 0.535894,-0.396708 0.05721,0 0.10401,-0.07145 0.10401,-0.158683 0,-0.0873 0.0516,-0.158677 0.114614,-0.158677 0.06299,0 0.266924,-0.154719 0.453104,-0.343816 0.18618,-0.189097 0.69355,-0.653246 1.12752,-1.03144 0.43395,-0.378188 0.97541,-0.854244 1.20325,-1.057884 0.22785,-0.203646 0.59336,-0.536877 0.81225,-0.740518 0.2189,-0.203646 0.69444,-0.632089 1.05676,-0.952099 0.36234,-0.320009 0.78271,-0.701504 0.93418,-0.847774 0.15146,-0.146258 0.56083,-0.503289 0.90971,-0.79341 0.34887,-0.29012 0.7611,-0.646506 0.91607,-0.791955 0.15496,-0.145462 0.62899,-0.573917 1.05341,-0.952105 0.42441,-0.378194 0.90766,-0.806638 1.07387,-0.952099 0.16621,-0.145462 0.48303,-0.431093 0.70403,-0.634727 0.221,-0.20364 0.4981,-0.441677 0.61576,-0.528954 0.11766,-0.08729 0.59452,-0.515714 1.05969,-0.952087 0.46517,-0.436385 1.08969,-0.982899 1.38783,-1.214491 0.29813,-0.231586 0.54206,-0.455997 0.54206,-0.498679 0,-0.04272 0.15977,-0.186442 0.35505,-0.319454 0.19528,-0.133006 0.61107,-0.456051 0.92399,-0.717888 0.31291,-0.261825 0.7839,-0.669582 1.04665,-0.906122 0.26274,-0.236541 0.57724,-0.522171 0.69888,-0.634727 0.12166,-0.112561 0.41073,-0.466491 0.64238,-0.7865 0.23165,-0.320016 0.54344,-0.819865 0.69288,-1.110776 0.14942,-0.290923 0.37211,-0.775795 0.49485,-1.077502 0.12274,-0.301707 0.22318,-0.714286 0.22318,-0.91684 0,-0.20255 0.0586,-0.38781 0.13019,-0.41168 0.0946,-0.0315 0.13077,-0.44579 0.13224,-1.51631 0.002,-1.11965 -0.045,-1.63781 -0.19369,-2.16053 -0.10765,-0.37819 -0.26989,-0.90184 -0.36056,-1.16366 -0.0907,-0.26184 -0.19628,-0.49985 -0.23473,-0.52896 -0.0384,-0.0291 -0.17296,-0.26711 -0.29893,-0.52893 -0.12598,-0.26183 -0.37358,-0.64267 -0.55022,-0.84631 -0.17663,-0.20366 -0.42732,-0.52727 -0.55707,-0.71917 -0.12974,-0.1919 -0.68815,-0.67191 -1.24089,-1.06671 -0.55275,-0.39478 -1.19542,-0.80232 -1.42815,-0.90564 -0.23275,-0.10332 -0.56139,-0.25407 -0.73033,-0.33499 -0.16895,-0.081 -0.46648,-0.14716 -0.66118,-0.14716 -0.19471,0 -0.35401,-0.0377 -0.35401,-0.0839 0,-0.0462 -0.28321,-0.14679 -0.62938,-0.22359 -0.50782,-0.11265 -3.14332,-0.13219 -13.647974,-0.10116 -7.160246,0.0211 -13.126457,0.0672 -13.258245,0.10235 z M 39.692462,54.322537 c 0,0.02909 -0.0238,0.05292 -0.0529,0.05292 -0.0291,0 -0.0529,-0.02384 -0.0529,-0.05292 0,-0.02909 0.0238,-0.05292 0.0529,-0.05292 0.0291,0 0.0529,0.02384 0.0529,0.05292 z"
       transform="matrix(0.00738532,0,0,0.00722564,-0.56322614,1.1695448)" /><path
       style="display:none;fill:#21264e;fill-opacity:1;stroke-width:0.00730507"
       d="M 0.42287012,1.5185083 V 1.370662 H 0.37597322 0.32907632 V 1.327647 1.284631 h 0.13678219 0.13678236 v 0.043016 0.043015 h -0.04592 -0.04592 l -2.953e-5,0.1084936 -2.955e-5,0.1084935 -0.00296,0.0123 -0.00296,0.012301 -0.00567,0.00968 -0.00567,0.00968 -0.009415,0.00921 -0.009415,0.00921 -0.013679,0.00656 -0.0136791,0.00656 -0.0122122,0.0016 -0.0122123,0.0016 z M 0.65149195,1.4738973 V 1.2827191 h 0.0870572 0.0870572 l 0.0140637,0.00311 0.0140637,0.00309 0.0117245,0.00521 0.0117245,0.00521 0.0121185,0.00898 0.0121186,0.00898 0.009095,0.011841 0.009095,0.011841 0.005426,0.010525 0.005426,0.010526 0.004378,0.013386 0.004378,0.013386 9.4506e-4,0.026765 9.4505e-4,0.026765 -0.004193,0.017207 -0.004193,0.017207 -0.006756,0.013386 -0.006756,0.013386 -0.008775,0.010938 -0.008775,0.010939 -0.00949,0.00722 -0.00949,0.00722 -0.005375,0.00383 -0.005375,0.00383 0.0255959,0.056862 0.025596,0.056862 v 0.00196 0.00196 l -0.0469961,-5.088e-4 -0.0469851,-5.121e-4 -0.0231592,-0.050662 -0.0231592,-0.050662 -0.0226724,-5.381e-4 -0.0226724,-5.384e-4 v 0.051679 0.051679 h -0.0429886 -0.0429886 z m 0.17541048,-0.00104 0.007238,-0.00295 0.004612,-0.00421 0.004612,-0.00421 0.003671,-0.00701 0.003671,-0.00701 0.002272,-0.013463 0.002272,-0.013463 -0.002408,-0.011995 -0.002408,-0.011994 -0.003547,-0.00673 -0.003547,-0.00673 -0.005551,-0.00514 -0.005551,-0.00514 -0.0055,-0.00203 -0.0055,-0.00203 h -0.0418846 -0.0418846 v 0.053531 0.05353 h 0.0410973 0.0410973 z m 0.18803957,0.00104 v -0.066849 h 0.085977 v 0.066849 0.1911784 H 1.0579307 1.014942 Z M 2.1013841,1.474847 V 1.2846309 h 0.1162655 0.1162655 v 0.042059 0.042059 h -0.072299 -0.072299 v 0.031544 0.031544 h 0.047911 0.047911 L 2.2846122,1.4743739 2.284086,1.5169119 2.2367,1.5174239 2.189314,1.517936 V 1.549447 1.580958 H 2.261613 2.333912 V 1.623017 1.665076 H 2.2176494 2.1013839 Z m -0.8490092,0.1840099 -0.00104,-0.0043 -0.041104,-0.1825752 -0.041103,-0.1825754 -0.0011,-0.0043 -0.0011,-0.0043 h 0.044742 0.044742 l 0.031189,0.1375488 0.031189,0.1375488 0.00126,-0.00133 0.00126,-0.00133 0.032573,-0.1328689 0.032573,-0.1328688 9.804e-4,-0.00335 9.804e-4,-0.00335 h 0.045788 0.045788 v 8.687e-4 8.69e-4 l 0.033195,0.1334334 0.033195,0.1334334 0.00161,0.00366 0.00161,0.00366 0.01693,-0.075346 0.01693,-0.075346 0.014026,-0.062612 0.014026,-0.062612 h 0.044645 0.044646 l -7.4e-5,4.79e-4 -7.38e-5,4.777e-4 -0.042625,0.1902214 -0.042625,0.1902223 -0.065362,5.029e-4 -0.065362,5.028e-4 -0.024079,-0.097047 -0.02408,-0.097049 -0.00148,-0.0027 -0.00148,-0.0027 -0.014035,0.056221 -0.014037,0.056221 -0.010791,0.043494 -0.010791,0.043492 H 1.3186597 1.2534007 Z M 1.7594284,1.4720226 V 1.2808074 l 0.087442,3.62e-5 0.087442,3.62e-5 0.01351,0.0028 0.01351,0.0028 0.0119,0.00551 0.011899,0.00551 0.011837,0.00859 0.011837,0.00859 0.00939,0.012208 0.00939,0.012208 0.00543,0.010525 0.00543,0.010525 0.00438,0.013386 0.00438,0.013386 9.68e-4,0.026873 9.677e-4,0.026873 -0.00412,0.016142 -0.00412,0.016142 -0.00896,0.017783 -0.00896,0.017783 -0.015012,0.014855 -0.015012,0.014855 -0.014651,0.00708 -0.014652,0.00708 -0.010743,0.00303 -0.010743,0.00303 -0.047355,9.592e-4 -0.047355,9.592e-4 -5.205e-4,0.050925 -5.206e-4,0.050925 -0.043477,5.148e-4 -0.043477,5.148e-4 z m 0.1724969,-1.515e-4 0.00738,-0.002 0.00653,-0.00561 0.00653,-0.00561 0.0045,-0.010051 0.0045,-0.010052 8.58e-5,-0.017207 8.56e-5,-0.017206 -0.00271,-0.00765 -0.00271,-0.00765 -0.00461,-0.00684 -0.00461,-0.00684 -0.00755,-0.00416 -0.00755,-0.00416 h -0.042235 -0.042235 v 0.05353 0.05353 l 0.038593,-7.3e-6 0.038591,-1.45e-5 z M 1.016672,1.3466142 v -0.066849 h 0.085977 v 0.066849 z"
       id="path4"
       sodipodi:nodetypes="cccccccccccccccccccccccccccccccccccccccccccccccccccccccccccccccccccccccccccccccccccccccccccccccccccccccccccccccccccccccccccccccccccccccccccccccccccccccccccccccccccccccccccccccccccccccccccccccccccccccccccccccccccccccccccccccccccccccc" /></g></svg>
