<?xml version="1.0" encoding="UTF-8" standalone="no"?>
<!-- Created with Inkscape (http://www.inkscape.org/) -->

<svg
   width="141.99878"
   height="47.259285"
   viewBox="0 0 1.9722054 0.65637896"
   version="1.1"
   id="svg1"
   inkscape:version="1.3.2 (091e20ef0f, 2023-11-25)"
   sodipodi:docname="logo.svg"
   xml:space="preserve"
   xmlns:inkscape="http://www.inkscape.org/namespaces/inkscape"
   xmlns:sodipodi="http://sodipodi.sourceforge.net/DTD/sodipodi-0.dtd"
   xmlns="http://www.w3.org/2000/svg"
   xmlns:svg="http://www.w3.org/2000/svg"><sodipodi:namedview
     id="namedview1"
     pagecolor="#505050"
     bordercolor="#eeeeee"
     borderopacity="1"
     inkscape:showpageshadow="0"
     inkscape:pageopacity="0"
     inkscape:pagecheckerboard="0"
     inkscape:deskcolor="#505050"
     inkscape:document-units="mm"
     inkscape:zoom="1.9830387"
     inkscape:cx="63.790988"
     inkscape:cy="-105.64595"
     inkscape:window-width="1392"
     inkscape:window-height="1237"
     inkscape:window-x="2736"
     inkscape:window-y="120"
     inkscape:window-maximized="0"
     inkscape:current-layer="layer1"
     showguides="true"><sodipodi:guide
       position="0.93672243,0.39362399"
       orientation="0,-1"
       id="guide3"
       inkscape:locked="false" /><sodipodi:guide
       position="0.83024445,0.33171819"
       orientation="0,-1"
       id="guide4"
       inkscape:locked="false" /><sodipodi:guide
       position="0.53766703,-0.26565159"
       orientation="0,-1"
       id="guide5"
       inkscape:locked="false" /><sodipodi:guide
       position="0.70565237,-0.20868659"
       orientation="0,-1"
       id="guide6"
       inkscape:locked="false" /></sodipodi:namedview><defs
     id="defs1"><clipPath
       clipPathUnits="userSpaceOnUse"
       id="clipPath15"><path
         d="M 0,772.853 H 1755.659 V 0 H 0 Z"
         transform="translate(-550.58111,-489.58881)"
         id="path15" /></clipPath></defs><g
     inkscape:label="Layer 1"
     inkscape:groupmode="layer"
     id="layer1"
     transform="translate(0.3156891,-1.1126897)"><path
       id="path14"
       d="m 0,0 c 0,-13.117 -10.677,-23.81 -23.811,-23.81 h -42.833 -22.752 c -4.695,7.32 -9.423,14.693 -14.185,22.149 l -1.814,2.813 c 0,0.001 10e-4,0.001 10e-4,0.001 7.168,24.437 29.793,42.334 56.518,42.334 H 0 Z m -56.655,-111.444 c 7.508,-11.626 11.473,-25.014 11.473,-38.724 0,-16.32 -5.728,-32.302 -16.133,-44.995 -19.761,-24.133 -52.52,-32.504 -81.516,-20.862 -28.81,11.575 -46.621,40.148 -44.334,71.127 0.915,12.117 5.05,23.743 12.643,35.521 14.303,22.117 28.268,43.961 43.639,68.026 h 29.251 c 1.474,-2.304 2.948,-4.61 4.423,-6.914 l 12.269,-19.134 c 8.745,-13.676 18.625,-29.114 28.285,-44.045 m -99.069,87.634 h -53.556 c -13.134,0 -23.811,10.676 -23.811,23.81 v 43.487 h 48.892 c 26.912,0 49.706,-18.185 56.688,-42.91 -1.288,-1.984 -2.559,-3.983 -3.83,-5.983 l -11.778,-18.404 z m 39.449,5.286 c 1.135,-1.775 2.258,-3.524 3.39,-5.286 h -6.773 z m 67.399,79.551 c -29.335,0 -54.858,-16.609 -67.652,-40.911 0,0 -10e-4,0 -10e-4,0 0,0 0,0 0,0 -12.829,24.302 -38.351,40.911 -67.67,40.911 h -66.433 V 0 c 0,-22.811 18.557,-41.351 41.352,-41.351 h 53.556 1.386 c -12.1,-18.93 -24.505,-38.3 -36.792,-57.298 -9.423,-14.609 -14.592,-29.268 -15.744,-44.774 -2.932,-39.606 19.845,-76.144 56.671,-90.939 10.965,-4.406 22.438,-6.643 34.098,-6.643 27.183,0 52.739,12.151 70.093,33.318 25.099,30.623 27.489,73.619 5.965,106.953 -8.219,12.727 -16.506,25.675 -24.624,38.335 l -13.473,21.048 h 11.5 42.833 C -1,-41.351 17.54,-22.793 17.54,0 v 61.027 z"
       style="fill:#ed6626;fill-opacity:0.980392;fill-rule:nonzero;stroke:none"
       transform="matrix(0.00217321,0,0,-0.00217321,0.22898687,1.2453142)"
       clip-path="url(#clipPath15)" /><path
       style="fill:#ec6626;fill-opacity:0.980392;stroke-width:0.00311336"
       d="m 1.1659737,1.5666598 c 3.406e-4,-0.142005 1.942e-4,-0.1373731 0.00472,-0.1599133 0.00837,-0.041614 0.028947,-0.06747 0.062618,-0.078681 0.022107,-0.00735 0.054784,-0.0089 0.079927,-0.00379 0.047564,0.00969 0.071981,0.04082 0.079579,0.1014401 0.00173,0.01387 0.00197,0.054983 3.645e-4,0.069062 -0.00418,0.037108 -0.013479,0.06205 -0.029466,0.079046 -0.01749,0.018592 -0.039177,0.026672 -0.071546,0.026656 -0.015874,-6.3e-6 -0.024763,-0.00147 -0.036417,-0.00598 -0.013143,-0.00508 -0.02599,-0.015742 -0.032442,-0.026906 l -0.00281,-0.00487 -2.103e-4,0.067753 -2.104e-4,0.067753 H 1.19287 1.1656536 Z m 0.1295009,-0.016291 c 0.017994,-0.00313 0.029946,-0.01322 0.037084,-0.03128 0.00836,-0.021144 0.01039,-0.070013 0.00419,-0.100908 -0.00526,-0.026242 -0.016687,-0.040197 -0.037553,-0.045887 -0.00759,-0.00207 -0.030249,-0.00202 -0.037893,7.73e-5 -0.025352,0.00695 -0.037065,0.026586 -0.040339,0.067553 -0.00224,0.02798 8.31e-5,0.057754 0.00583,0.075046 0.007,0.021021 0.01963,0.032409 0.039636,0.035741 0.00704,0.00117 0.021299,10e-4 0.029041,-3.423e-4 z m -0.43080983,0.050191 c -0.0186817,-0.00179 -0.0304905,-0.00628 -0.0404129,-0.015348 -0.0124696,-0.011397 -0.0209898,-0.030509 -0.0258042,-0.057886 -0.001452,-0.00825 -0.0223355,-0.1921077 -0.0223355,-0.1966338 0,-0.00138 0.001585,-0.00148 0.0266783,-0.00148 h 0.0266783 l 4.9122e-4,0.00351 c 2.6983e-4,0.00194 0.004763,0.042235 0.009976,0.089581 0.005496,0.049913 0.0103601,0.090551 0.0115719,0.09672 0.003326,0.016939 0.0077,0.025596 0.0151397,0.029969 0.003363,0.00198 0.004622,0.00223 0.0112623,0.00223 0.006888,0 0.007795,-1.963e-4 0.0115215,-0.0025 0.007892,-0.00488 0.012705,-0.014956 0.0159618,-0.03343 9.1122e-4,-0.00515 0.005741,-0.047556 0.0107415,-0.09422 0.005001,-0.046665 0.009313,-0.08642 0.009588,-0.088345 L 0.92622,1.329227 h 0.026997 0.026997 l 4.9119e-4,0.0035 c 2.6992e-4,0.00194 0.00476,0.042237 0.009976,0.089581 0.005493,0.049913 0.0103611,0.090551 0.011572,0.09672 0.00333,0.016939 0.0077,0.025596 0.01514,0.029969 0.00335,0.00197 0.00463,0.00223 0.011198,0.00223 0.00664,0 0.00782,-2.406e-4 0.011356,-0.00233 0.00743,-0.00437 0.012127,-0.013356 0.01548,-0.029613 9.586e-4,-0.00464 0.00624,-0.049207 0.011771,-0.099044 l 0.010034,-0.090618 0.027032,-2.172e-4 0.027032,-2.169e-4 -4.85e-4,0.00309 c -2.677e-4,0.0017 -0.00493,0.043319 -0.010349,0.092476 -0.00542,0.049157 -0.010607,0.093732 -0.01152,0.099058 -0.00755,0.044164 -0.022434,0.06638 -0.049461,0.073882 -0.013136,0.00365 -0.034221,0.00387 -0.047365,4.698e-4 -0.0146019,-0.00376 -0.0272483,-0.014097 -0.0344413,-0.02815 -0.008456,-0.016521 -0.0128321,-0.036275 -0.0157576,-0.071124 -0.005381,-0.064107 -0.007445,-0.084845 -0.008456,-0.084845 -5.8594e-4,0 -0.001072,1.855e-4 -0.001072,4.121e-4 0,0.00374 -0.00935,0.1037256 -0.010269,0.109822 -0.007221,0.047902 -0.0225463,0.069693 -0.0527462,0.075007 -0.005689,10e-4 -0.0198683,0.00173 -0.0247124,0.00126 z M 1.5303222,1.600203 C 1.4698072,1.594823 1.4380572,1.562207 1.4292874,1.4964355 c -0.0024,-0.018021 -0.00219,-0.056663 4.128e-4,-0.075372 0.00478,-0.034262 0.014874,-0.0572 0.03255,-0.073943 0.013957,-0.013222 0.030018,-0.020379 0.05425,-0.024174 0.010616,-0.00165 0.038244,-0.0019 0.048747,-4.085e-4 0.029808,0.00421 0.050981,0.015017 0.065947,0.03364 0.018304,0.022779 0.026965,0.058851 0.025065,0.1044117 l -6.06e-4,0.014429 h -0.087063 -0.087062 l 2.674e-4,0.00514 c 0.0017,0.033019 0.00786,0.052735 0.020401,0.065301 0.0066,0.00662 0.012724,0.01016 0.022302,0.012875 0.00864,0.00246 0.028245,0.00271 0.036628,4.742e-4 0.017758,-0.00473 0.029922,-0.017015 0.035281,-0.035608 8.984e-4,-0.00315 0.00187,-0.00679 0.00217,-0.00802 l 4.85e-4,-0.00225 h 0.027183 0.027183 l -5.345e-4,0.00225 c -0.00163,0.00691 -0.00799,0.024631 -0.011004,0.030685 -0.014887,0.029807 -0.038104,0.047178 -0.070455,0.052709 -0.010939,0.00186 -0.029963,0.00264 -0.041111,0.00163 z m 0.071179,-0.1650935 c 0,-0.00634 -0.00243,-0.022787 -0.00458,-0.030933 -0.00801,-0.030434 -0.026984,-0.044149 -0.058845,-0.042552 -0.017066,8.592e-4 -0.027137,0.00467 -0.036282,0.01372 -0.011193,0.011082 -0.017061,0.028297 -0.019307,0.056632 l -5.346e-4,0.00681 h 0.059779 0.059777 z M 0.44085048,1.591922 C 0.38732508,1.588552 0.36403138,1.569373 0.35805028,1.523782 0.35705788,1.516212 0.35683128,1.501837 0.35683128,1.446556 V 1.378639 l -4.1584e-4,-0.04911 2.1657e-4,-0.028988 2.1648e-4,-0.028988 h 0.0271735 0.0271731 v 0.02883 0.028831 h 0.0313017 0.0313017 v 0.024712 0.024712 h -0.0313354 -0.0313349 l 2.7724e-4,0.065282 c 2.408e-4,0.056811 4.4597e-4,0.065833 0.001585,0.069534 0.006511,0.02113 0.0186543,0.028671 0.0478332,0.029708 l 0.0129739,4.598e-4 v 0.024597 0.024596 l -0.0113268,-1.209e-4 c -0.00623,-6.65e-5 -0.0159596,-4.136e-4 -0.0216231,-7.711e-4 z m 0.0669684,-0.096515 c 2.748e-4,-0.083579 5.0025e-4,-0.098351 0.001593,-0.1040597 0.002125,-0.011087 0.004592,-0.01903 0.007994,-0.025708 0.0138043,-0.027129 0.0404595,-0.036386 0.1048715,-0.036415 l 0.0162686,-6.1e-6 v 0.024611 0.024611 l -0.0199757,4.147e-4 c -0.01665,3.455e-4 -0.0210252,6.962e-4 -0.0262805,0.00211 -0.0158285,0.00425 -0.023828,0.01193 -0.0280536,0.02694 l -0.001851,0.00658 -2.5532e-4,0.089171 -2.5532e-4,0.089171 H 0.53468724 0.50749744 Z M 0.67973508,1.461015 V 1.3292166 h 0.0271841 0.0271833 V 1.4610151 1.5928135 H 0.7069191 0.67973505 Z M 0.68060134,1.2600223 V 1.233663 h 0.0263206 0.0261975 v 0.02636 0.02636 h -0.0261975 -0.0263206 z"
       id="path16"
       sodipodi:nodetypes="ccssscscsscccccccssscscsccccssscccsssccscccccscssccsccccccscscsscscccsssscscccccsscccccccssccssssccccscsscccccccccccccccccccccccccscccccsscccccccccccccccccccccccc" /></g></svg>
